<svg width="128" height="24" viewBox="0 0 128 24" fill="none" xmlns="http://www.w3.org/2000/svg">
    <path fill-rule="evenodd" clip-rule="evenodd"
          d="M24.2 12C24.2 18.6274 18.7826 24 12.1 24C5.41735 24 -8.21016e-07 18.6274 0 12C0 5.37258 5.41735 -8.1423e-07 12.1 0C18.7826 0 24.2 5.37258 24.2 12ZM12.1 21.8C6.64251 21.8 2.21833 17.4124 2.21833 12C2.21833 6.58761 6.64251 2.2 12.1 2.2C12.7428 2.2 13.3713 2.26087 13.9799 2.37711C14.2538 2.42943 14.1951 2.82757 13.918 2.8591C9.35768 3.37805 5.64667 7.29305 5.64667 12C5.64667 16.7069 9.35767 20.622 13.918 21.1409C14.1951 21.1724 14.2538 21.5706 13.9798 21.6229C13.3713 21.7391 12.7428 21.8 12.1 21.8ZM19.2206 8.21825C19.4267 8.2973 19.3927 8.58647 19.1884 8.66993C17.8689 9.20895 16.94 10.4969 16.94 12C16.94 13.5031 17.8689 14.791 19.1884 15.3301C19.3927 15.4135 19.4267 15.7027 19.2206 15.7817C18.7634 15.9571 18.2663 16.0533 17.7467 16.0533C15.4894 16.0533 13.6596 14.2386 13.6596 12C13.6596 9.76141 15.4894 7.94667 17.7467 7.94667C18.2663 7.94667 18.7634 8.04285 19.2206 8.21825ZM11.2933 12C11.2933 8.88109 13.5429 6.28326 16.5208 5.71533C16.7779 5.66629 16.8278 5.3035 16.5733 5.24258C16.0442 5.11597 15.4917 5.04889 14.9233 5.04889C11.0523 5.04889 7.9143 8.16101 7.9143 12C7.9143 15.839 11.0523 18.9511 14.9233 18.9511C15.4917 18.9511 16.0442 18.884 16.5733 18.7574C16.8278 18.6965 16.7779 18.3337 16.5208 18.2847C13.5429 17.7167 11.2933 15.1189 11.2933 12ZM20.57 12.96C20.0354 12.96 19.602 12.5302 19.602 12C19.602 11.4698 20.0354 11.04 20.57 11.04C21.1046 11.04 21.538 11.4698 21.538 12C21.538 12.5302 21.1046 12.96 20.57 12.96Z"
          fill="url(#paint0_radial_6236_113154)"/>
    <path d="M39.5005 19.9716C37.6099 19.9716 36.0807 19.5366 34.913 18.6666C33.9515 17.9366 33.3029 16.9591 32.967 15.734C32.85 15.3072 33.1551 14.8952 33.5925 14.8278L35.9221 14.4686C36.3395 14.4043 36.7222 14.6835 36.9058 15.0639C37.0943 15.4545 37.3615 15.7807 37.7072 16.0422C38.254 16.4489 38.9444 16.6522 39.7785 16.6522C40.4643 16.6522 40.9926 16.5198 41.3633 16.255C41.734 15.9808 41.9194 15.6025 41.9194 15.1202C41.9194 14.8175 41.8452 14.5764 41.6969 14.3967C41.5486 14.2075 41.215 14.0231 40.696 13.8435C40.1863 13.6638 39.3893 13.4273 38.305 13.1342C37.0816 12.8126 36.1039 12.4533 35.3718 12.0561C34.6396 11.6589 34.1114 11.186 33.787 10.6375C33.4626 10.0795 33.3005 9.40807 33.3005 8.62314C33.3005 7.6396 33.546 6.78846 34.0372 6.06972C34.5284 5.34152 35.2189 4.78356 36.1085 4.39581C37.0075 3.99862 38.064 3.80002 39.2781 3.80002C40.4551 3.80002 41.4977 3.98443 42.4059 4.35326C43.3141 4.72208 44.0463 5.24695 44.6023 5.92786C45.0095 6.41823 45.3036 6.97235 45.4849 7.59024C45.6055 8.00155 45.3124 8.40046 44.8908 8.47784L42.6223 8.89417C42.1668 8.97777 41.7553 8.63951 41.5242 8.23813C41.4065 8.03366 41.251 7.85464 41.0575 7.70107C40.6404 7.37007 40.0751 7.1762 39.3615 7.11946C38.6664 7.07217 38.1057 7.16674 37.6794 7.40317C37.2624 7.6396 37.0538 7.98005 37.0538 8.42454C37.0538 8.68934 37.1419 8.91158 37.318 9.09126C37.5033 9.27095 37.8787 9.45536 38.444 9.6445C39.0186 9.83364 39.8897 10.0795 41.0575 10.3822C42.1974 10.6848 43.1102 11.0394 43.796 11.4461C44.4911 11.8433 44.9962 12.3256 45.3113 12.893C45.6264 13.451 45.784 14.1272 45.784 14.9216C45.784 16.4914 45.2279 17.7256 44.1158 18.624C43.0037 19.5224 41.4652 19.9716 39.5005 19.9716Z"
          fill="currentColor"/>
    <path d="M51.802 19.9716C50.727 19.9716 49.8141 19.7636 49.0635 19.3475C48.322 18.9219 47.7567 18.3592 47.3675 17.6594C46.9875 16.9501 46.7975 16.1699 46.7975 15.3188C46.7975 14.6095 46.9041 13.9617 47.1173 13.3753C47.3304 12.789 47.6733 12.2736 48.146 11.8291C48.6279 11.3752 49.272 10.9969 50.0783 10.6942C50.6343 10.4862 51.297 10.3018 52.0662 10.141C52.8354 9.98023 53.7065 9.82892 54.6796 9.68706C54.9517 9.64476 55.3756 9.57905 55.7459 9.52171C56.1677 9.45639 56.4664 9.06661 56.3171 8.66675C56.2246 8.41881 56.0881 8.15509 55.8891 7.95641C55.4628 7.53084 54.7492 7.31806 53.7482 7.31806C53.1922 7.31806 52.613 7.45518 52.0106 7.72944C51.6351 7.90036 51.3299 8.15394 51.0949 8.49016C50.845 8.8475 50.4133 9.08306 49.9985 8.94884L48.0707 8.32509C47.6567 8.19115 47.4203 7.74785 47.595 7.34937C48.0058 6.41243 48.6296 5.62651 49.4666 4.99161C50.5138 4.19722 51.9411 3.80002 53.7482 3.80002C55.0735 3.80002 56.2505 4.00807 57.2792 4.42419C58.3079 4.8403 59.0864 5.55904 59.6147 6.5804C59.9112 7.14783 60.0873 7.71526 60.1429 8.28268C60.1985 8.85011 60.2263 9.48373 60.2263 10.1836V18.7461C60.2263 19.1879 59.8682 19.5461 59.4263 19.5461H57.4195C57.1424 19.5461 56.9178 19.3214 56.9178 19.0443C56.9178 18.5759 56.2979 18.3331 55.9413 18.637C55.6602 18.8765 55.3405 19.1146 55.0133 19.2907C54.1699 19.7447 53.0995 19.9716 51.802 19.9716ZM52.6083 16.9359C53.3034 16.9359 53.8873 16.813 54.3599 16.5671C54.8418 16.3118 55.2218 16.0233 55.4998 15.7018C55.7871 15.3802 55.9817 15.1107 56.0837 14.8932C56.2783 14.4771 56.3895 13.9948 56.4173 13.4463C56.4485 12.9772 56.0255 12.6095 55.563 12.693C55.2945 12.7415 55.0276 12.7902 54.8604 12.8221C54.1653 12.945 53.6046 13.0585 53.1783 13.1625C52.752 13.2666 52.3766 13.3801 52.0523 13.503C51.6816 13.6543 51.3804 13.8198 51.1487 13.9995C50.9263 14.1697 50.7594 14.3589 50.6482 14.5669C50.5463 14.775 50.4953 15.0067 50.4953 15.262C50.4953 15.6119 50.5787 15.9146 50.7455 16.1699C50.9216 16.4158 51.1672 16.6049 51.4823 16.7373C51.7974 16.8697 52.1728 16.9359 52.6083 16.9359Z"
          fill="currentColor"/>
    <path d="M77.2095 19.5461C76.7671 19.5461 76.4087 19.187 76.4095 18.7446L76.4344 4.99577C76.4352 4.55451 76.7931 4.19722 77.2344 4.19722H79.4726C79.9145 4.19722 80.2726 4.5554 80.2726 4.99722V9.03328C80.2726 9.81829 81.2855 10.1337 81.7312 9.48751L85.1221 4.57136C85.2714 4.35486 85.5176 4.22559 85.7806 4.22559H90.0315L84.9286 11.4356C84.7367 11.7067 84.7323 12.0681 84.9174 12.3437L88.9171 18.3001C89.274 18.8316 88.8931 19.5461 88.2529 19.5461H85.2786C85.0014 19.5461 84.7439 19.4025 84.5981 19.1667L81.7531 14.5645C81.3294 13.879 80.2726 14.1793 80.2726 14.9851V18.7461C80.2726 19.1879 79.9145 19.5461 79.4726 19.5461H77.2095Z"
          fill="currentColor"/>
    <path d="M95.2379 20C94.0609 20 93.1017 19.7967 92.3603 19.39C91.6189 18.9834 91.0397 18.468 90.6227 17.8438C90.2149 17.2196 89.923 16.5718 89.7469 15.9004C89.5708 15.2195 89.4642 14.6 89.4271 14.042C89.3901 13.4841 89.3715 13.0774 89.3715 12.8221V4.22559H92.4083C92.8502 4.22559 93.2083 4.58376 93.2083 5.02559V11.4603C93.2083 11.8102 93.2269 12.2594 93.2639 12.8079C93.301 13.347 93.4169 13.8907 93.6115 14.4392C93.8061 14.9878 94.1212 15.4464 94.5568 15.8153C95.0016 16.1841 95.6272 16.3685 96.4335 16.3685C96.7578 16.3685 97.1054 16.3165 97.4761 16.2125C97.8468 16.1084 98.1943 15.9098 98.5187 15.6167C98.843 15.314 99.1072 14.8743 99.3111 14.2974C99.5242 13.7111 99.6308 11.9457 99.6308 11C101.905 12.1007 102.227 13.926 101.077 16.4536C100.821 17.0149 100.497 17.5191 100.103 17.9663C99.7546 18.3628 99.3514 18.7145 98.894 19.0212C97.9302 19.6737 96.7115 20 95.2379 20ZM100.903 19.5461C100.462 19.5461 100.103 19.1879 100.103 18.7461V17.9663L99.6308 11V5.02559C99.6308 4.58376 99.989 4.22559 100.431 4.22559H102.64C103.082 4.22559 103.44 4.58376 103.44 5.02559V18.7461C103.44 19.1879 103.082 19.5461 102.64 19.5461H100.903Z"
          fill="currentColor"/>
    <path d="M105.998 19.5461C105.556 19.5461 105.198 19.1879 105.198 18.7461V5.02559C105.198 4.58376 105.556 4.22559 105.998 4.22559H107.735C108.176 4.22559 108.535 4.58376 108.535 5.02559V7.46024C108.535 7.62365 108.327 7.69296 108.229 7.56219C108.194 7.5161 108.185 7.45558 108.206 7.40183C108.396 6.90608 108.645 6.45259 108.952 6.04135C109.276 5.60632 109.675 5.24695 110.147 4.96324C110.509 4.73627 110.903 4.56131 111.329 4.43837C111.755 4.30597 112.195 4.22559 112.649 4.19722C113.104 4.15939 113.558 4.16884 114.012 4.22559V7.82874C113.595 7.69634 113.108 7.65378 112.552 7.70107C112.005 7.7389 111.51 7.86657 111.065 8.08408C110.62 8.29214 110.244 8.57112 109.939 8.92103C109.633 9.26149 109.401 9.66814 109.244 10.141C109.086 10.6044 109.007 11.1293 109.007 11.7156V18.7461C109.007 19.1879 108.649 19.5461 108.207 19.5461H105.998Z"
          fill="currentColor"/>
    <path d="M119.798 20C118.621 20 117.662 19.7967 116.921 19.39C116.179 18.9834 115.6 18.468 115.183 17.8438C114.775 17.2196 114.483 16.5718 114.307 15.9004C114.131 15.2195 114.024 14.6 113.987 14.042C113.95 13.4841 113.932 13.0774 113.932 12.8221V4.22559H116.969C117.41 4.22559 117.769 4.58376 117.769 5.02559V11.4603C117.769 11.8102 117.787 12.2594 117.824 12.8079C117.861 13.347 117.977 13.8907 118.172 14.4392C118.366 14.9878 118.681 15.4464 119.117 15.8153C119.562 16.1841 120.187 16.3685 120.994 16.3685C121.318 16.3685 121.666 16.3165 122.036 16.2125C122.407 16.1084 122.755 15.9098 123.079 15.6167C123.403 15.314 123.667 14.8743 123.871 14.2974C123.979 14.0014 124.059 13.6596 124.113 13.272C124.193 12.6873 124.808 12.2981 125.34 12.5553L125.908 12.8305C126.184 12.9642 126.363 13.2442 126.346 13.5504C126.288 14.5742 126.052 15.5419 125.637 16.4536C125.155 17.5128 124.427 18.3687 123.454 19.0212C122.49 19.6737 121.272 20 119.798 20ZM125.464 19.5461C125.022 19.5461 124.664 19.1879 124.664 18.7461V14.7039C124.664 14.5734 124.558 14.4676 124.427 14.4676C124.297 14.4676 124.191 14.3618 124.191 14.2313V5.02559C124.191 4.58376 124.549 4.22559 124.991 4.22559H127.2C127.642 4.22559 128 4.58376 128 5.02559V18.7461C128 19.1879 127.642 19.5461 127.2 19.5461H125.464Z"
          fill="currentColor"/>
    <path d="M66.2045 19.9716C65.1295 19.9716 64.2166 19.7636 63.4659 19.3475C62.7245 18.9219 62.1592 18.3592 61.77 17.6594C61.39 16.9501 61.2 16.1699 61.2 15.3188C61.2 14.6095 61.3066 13.9617 61.5197 13.3753C61.7329 12.789 62.0758 12.2736 62.5484 11.8291C63.0304 11.3752 63.6745 10.9969 64.4807 10.6942C65.0368 10.4862 65.6994 10.3018 66.4687 10.141C67.2379 9.98023 68.109 9.82892 69.0821 9.68706C69.3541 9.64476 69.7781 9.57905 70.1484 9.52171C70.5702 9.45639 70.8688 9.06661 70.7196 8.66675C70.6271 8.41881 70.4906 8.15509 70.2915 7.95641C69.8652 7.53084 69.1516 7.31806 68.1507 7.31806C67.5947 7.31806 67.0154 7.45518 66.413 7.72944C66.0376 7.90036 65.7324 8.15394 65.4973 8.49016C65.2475 8.8475 64.8158 9.08306 64.4009 8.94884L62.4731 8.32509C62.0592 8.19115 61.8228 7.74785 61.9975 7.34937C62.4082 6.41243 63.0321 5.62651 63.8691 4.99161C64.9163 4.19722 66.3435 3.80002 68.1507 3.80002C69.476 3.80002 70.653 4.00807 71.6817 4.42419C72.7104 4.8403 73.4889 5.55904 74.0171 6.5804C74.3137 7.14783 74.4898 7.71526 74.5454 8.28268C74.601 8.85011 74.6288 9.48373 74.6288 10.1836V18.7461C74.6288 19.1879 74.2706 19.5461 73.8288 19.5461H71.822C71.5449 19.5461 71.3203 19.3214 71.3203 19.0443C71.3203 18.5759 70.7003 18.3331 70.3438 18.637C70.0627 18.8765 69.743 19.1146 69.4158 19.2907C68.5724 19.7447 67.502 19.9716 66.2045 19.9716ZM67.0108 16.9359C67.7059 16.9359 68.2897 16.813 68.7624 16.5671C69.2443 16.3118 69.6243 16.0233 69.9023 15.7018C70.1896 15.3802 70.3842 15.1107 70.4862 14.8932C70.6808 14.4771 70.792 13.9948 70.8198 13.4463C70.851 12.9772 70.428 12.6095 69.9655 12.693C69.697 12.7415 69.4301 12.7902 69.2628 12.8221C68.5678 12.945 68.0071 13.0585 67.5808 13.1625C67.1545 13.2666 66.7791 13.3801 66.4548 13.503C66.084 13.6543 65.7828 13.8198 65.5512 13.9995C65.3287 14.1697 65.1619 14.3589 65.0507 14.5669C64.9488 14.775 64.8978 15.0067 64.8978 15.262C64.8978 15.6119 64.9812 15.9146 65.148 16.1699C65.3241 16.4158 65.5697 16.6049 65.8848 16.7373C66.1999 16.8697 66.5752 16.9359 67.0108 16.9359Z"
          fill="currentColor"/>
    <defs>
        <radialGradient id="paint0_radial_6236_113154" cx="0" cy="0" r="1" gradientUnits="userSpaceOnUse"
                        gradientTransform="translate(8.26058 24.8077) rotate(-74.5329) scale(25.7399 17.8886)">
            <stop offset="0.0790625" stop-color="#604EFF"/>
            <stop offset="0.567708" stop-color="#D715E8"/>
            <stop offset="1" stop-color="#FF782D"/>
        </radialGradient>
    </defs>
</svg>
