<svg width="384" height="384" viewBox="0 0 24 24" xmlns="http://www.w3.org/2000/svg" fill="none">
    <defs>
        <radialGradient gradientTransform="translate(8.26058 24.8077) rotate(-74.5329) scale(25.7399 17.8886)"
                        gradientUnits="userSpaceOnUse" r="1" cy="0" cx="0" id="paint0_radial_6236_113154">
            <stop stop-color="#604EFF" offset="0.07906"/>
            <stop stop-color="#D715E8" offset="0.56771"/>
            <stop stop-color="#FF782D" offset="1"/>
        </radialGradient>
    </defs>
    <g>
        <path id="svg_1" fill="url(#paint0_radial_6236_113154)"
              d="m24.2,12c0,6.6274 -5.4174,12 -12.1,12c-6.68265,0 -12.1,-5.3726 -12.1,-12c0,-6.62742 5.41735,-12 12.1,-12c6.6826,0 12.1,5.37258 12.1,12zm-12.1,9.8c-5.45749,0 -9.88167,-4.3876 -9.88167,-9.8c0,-5.41239 4.42418,-9.8 9.88167,-9.8c0.6428,0 1.2713,0.06087 1.8799,0.17711c0.2739,0.05232 0.2152,0.45046 -0.0619,0.48199c-4.56032,0.51895 -8.27133,4.43395 -8.27133,9.1409c0,4.7069 3.711,8.622 8.27133,9.1409c0.2771,0.0315 0.3358,0.4297 0.0618,0.482c-0.6085,0.1162 -1.237,0.1771 -1.8798,0.1771zm7.1206,-13.58175c0.2061,0.07905 0.1721,0.36822 -0.0322,0.45168c-1.3195,0.53902 -2.2484,1.82697 -2.2484,3.33007c0,1.5031 0.9289,2.791 2.2484,3.3301c0.2043,0.0834 0.2383,0.3726 0.0322,0.4516c-0.4572,0.1754 -0.9543,0.2716 -1.4739,0.2716c-2.2573,0 -4.0871,-1.8147 -4.0871,-4.0533c0,-2.23859 1.8298,-4.05333 4.0871,-4.05333c0.5196,0 1.0167,0.09618 1.4739,0.27158zm-7.9273,3.78175c0,-3.11891 2.2496,-5.71674 5.2275,-6.28467c0.2571,-0.04904 0.307,-0.41183 0.0525,-0.47275c-0.5291,-0.12661 -1.0816,-0.19369 -1.65,-0.19369c-3.871,0 -7.009,3.11212 -7.009,6.95111c0,3.839 3.138,6.9511 7.009,6.9511c0.5684,0 1.1209,-0.0671 1.65,-0.1937c0.2545,-0.0609 0.2046,-0.4237 -0.0525,-0.4727c-2.9779,-0.568 -5.2275,-3.1658 -5.2275,-6.2847zm9.2767,0.96c-0.5346,0 -0.968,-0.4298 -0.968,-0.96c0,-0.5302 0.4334,-0.96 0.968,-0.96c0.5346,0 0.968,0.4298 0.968,0.96c0,0.5302 -0.4334,0.96 -0.968,0.96z"
              clip-rule="evenodd" fill-rule="evenodd"/>
    </g>
</svg>
