<?xml version="1.0" encoding="UTF-8"?>
<svg version="1.1" xmlns="http://www.w3.org/2000/svg" width="5000" height="697">
<path d="M0 0 C0.92508865 -0.00571014 1.85017731 -0.01142029 2.80329895 -0.01730347 C3.81630569 -0.01842133 4.82931244 -0.01953918 5.87301636 -0.02069092 C6.94164413 -0.02565582 8.01027191 -0.03062073 9.11128235 -0.03573608 C12.65540202 -0.05036973 16.19947688 -0.05716279 19.74362183 -0.06268311 C22.20642091 -0.06843487 24.66921998 -0.0741926 27.13201904 -0.07995605 C32.3020346 -0.09047036 37.47203458 -0.09630979 42.64205933 -0.09979248 C49.25621497 -0.10526903 55.87016391 -0.12927754 62.48425484 -0.15776443 C67.57501824 -0.17642234 72.66573225 -0.18159817 77.75652695 -0.18312836 C80.19409181 -0.18614978 82.63165591 -0.194161 85.06918716 -0.20731354 C88.48702772 -0.22443464 91.90436866 -0.22247837 95.32223511 -0.21600342 C96.82352715 -0.22982559 96.82352715 -0.22982559 98.35514832 -0.243927 C109.04887298 -0.18070566 116.68013738 2.80516826 124.48580933 10.14044189 C134.05085248 20.37232901 133.91734362 31.73114588 133.85470581 44.93829346 C133.85717661 46.74116748 133.86101785 48.54404007 133.86611938 50.34690857 C133.87443182 54.21662445 133.87367141 58.08619304 133.86593437 61.95590973 C133.85430718 68.08477018 133.86655166 74.21344299 133.8825531 80.34228516 C133.91867457 95.56598794 133.92498164 110.78968596 133.92245483 126.01342773 C133.92074039 137.84642685 133.92795936 149.67927165 133.9624334 161.51222777 C133.97915678 167.5944191 133.97749349 173.67623295 133.96161067 179.75842237 C133.95578207 183.55582263 133.96661051 187.35304688 133.9818573 191.15041542 C133.98555922 192.89942405 133.98254657 194.6484631 133.97198677 196.39744377 C133.89419651 210.21186886 134.79127219 222.69165621 144.97409058 233.04278564 C153.53897882 240.19573275 162.57285204 242.06415049 173.48580933 241.14044189 C186.6051978 238.2559141 193.25649974 229.76876691 200.48580933 219.14044189 C201.61329094 217.49582662 202.74090681 215.85130338 203.86862183 214.20684814 C207.11804213 209.45825092 210.35222589 204.69943035 213.58395386 199.93878174 C216.4169118 195.77044233 219.26309354 191.6112072 222.11080933 187.45294189 C223.17591877 185.89695592 224.24102295 184.34096635 225.30612183 182.78497314 C225.82980347 182.02007568 226.35348511 181.25517822 226.89303589 180.46710205 C229.04822405 177.31888881 231.20258908 174.17011274 233.35690308 171.02130127 C234.98050787 168.64819067 236.60425211 166.27517551 238.22799683 163.90216064 C240.42119577 160.69676676 242.61384651 157.49099879 244.80612183 154.28497314 C250.30303885 146.24702844 255.80690245 138.21400975 261.32662964 130.19171143 C266.50802442 122.65870308 271.66784241 115.11094783 276.82858276 107.56378174 C279.54690333 103.58881857 282.26640902 99.61466642 284.98580933 95.64044189 C286.0691485 94.05711255 287.15248183 92.47377922 288.23580933 90.89044189 C290.40247599 87.72377523 292.56914266 84.55710856 294.73580933 81.39044189 C295.27222046 80.6064502 295.80863159 79.8224585 296.36129761 79.01470947 C297.44297999 77.43380157 298.52468566 75.8529096 299.60641479 74.27203369 C302.34020034 70.2767226 305.07356134 66.28112223 307.80612183 62.28497314 C319.16600815 45.67369227 319.16600815 45.67369227 324.45407104 38.00494385 C326.77523443 34.63768801 329.08230655 31.26194517 331.36862183 27.87091064 C346.80645211 5.02794225 346.80645211 5.02794225 361.48580933 1.14044189 C365.46185163 0.84064532 369.42950591 0.86210439 373.41531372 0.87301636 C374.62619966 0.86848524 375.8370856 0.86395413 377.08466506 0.85928571 C380.43814143 0.84882474 383.79140312 0.84731427 387.14488053 0.84967446 C390.76464765 0.85008304 394.38438291 0.83903957 398.00413513 0.82955933 C405.09336489 0.81295673 412.18256138 0.8074501 419.27180895 0.80633457 C425.03579197 0.80538368 430.79976404 0.80127133 436.56374359 0.79493332 C452.91288957 0.7773224 469.26200931 0.76809413 485.61116484 0.76959427 C486.49228287 0.76967418 487.3734009 0.76975409 488.28121948 0.76983643 C489.60451419 0.76995907 489.60451419 0.76995907 490.95454213 0.77008419 C505.24817359 0.77089689 519.54169962 0.75176273 533.83530059 0.72355969 C548.51892748 0.6948162 563.20250298 0.68102023 577.8861587 0.68274724 C586.12705484 0.68341067 594.36784048 0.67793917 602.60871124 0.65639114 C609.62595745 0.63815997 616.64304307 0.63384779 623.66030273 0.64740999 C627.23831653 0.65393014 630.81602242 0.65409183 634.39400673 0.63670349 C638.2789363 0.61801824 642.16341876 0.6305524 646.04837036 0.64596558 C647.17076087 0.63567845 648.29315138 0.62539132 649.44955373 0.61479247 C659.66060823 0.70417104 668.77800224 3.6333489 676.26315308 10.85528564 C683.59265999 18.68065772 686.60067264 26.94309354 686.6188879 37.64355183 C686.62312895 38.71848308 686.62736999 39.79341433 686.63173956 40.90091926 C686.63135342 42.07101718 686.63096729 43.2411151 686.63056946 44.44667053 C686.63585973 46.32441202 686.63585973 46.32441202 686.64125687 48.24008769 C686.65092957 51.7087124 686.65450133 55.17732064 686.65709984 58.64595687 C686.6610025 62.39090181 686.67064063 66.13583233 686.67965698 69.88076782 C686.69459037 76.37454241 686.70613884 82.86831586 686.71560478 89.3621006 C686.7295188 98.78692765 686.75071693 108.21172822 686.77403332 117.6365362 C686.81196284 132.97564102 686.84691013 148.31475072 686.87863159 163.65386963 C686.88053208 164.57190157 686.88243258 165.48993351 686.88439066 166.4357846 C686.91111043 179.40714809 686.93501123 192.37851525 686.95777566 205.3498862 C686.95937296 206.25973198 686.96097026 207.16957776 686.96261597 208.10699463 C686.96420943 209.01571561 686.9658029 209.92443659 686.96744465 210.86069456 C686.99438149 226.11058036 687.02885766 241.36043854 687.06926972 256.61029452 C687.09382015 265.98619773 687.11227064 275.3620715 687.12242533 284.73800155 C687.12991953 291.1956166 687.14459579 297.65319208 687.16448956 304.11078069 C687.17567971 307.81508789 687.18402844 311.51933198 687.18348122 315.22365761 C687.18346028 330.43718318 687.48240615 345.588628 688.39537048 360.77403259 C688.45512093 361.78758159 688.45512093 361.78758159 688.51607846 362.82160632 C691.32969778 409.4956412 702.70258313 456.41842275 735.48580933 491.14044189 C736.1432312 491.85071533 736.80065308 492.56098877 737.47799683 493.29278564 C757.39444186 514.12906649 786.65952963 521.53394412 814.60299683 522.42559814 C828.45901874 522.68034443 841.96206704 522.30593615 855.48580933 519.14044189 C856.33578491 518.94176514 857.1857605 518.74308838 858.06149292 518.53839111 C888.08686338 511.25173968 913.77748606 494.68973095 930.04830933 468.01544189 C949.32761193 435.23294064 953.29816725 399.3076252 956.17330933 362.07794189 C956.2341571 361.29211731 956.29500488 360.50629272 956.35769653 359.69665527 C958.02239541 337.84368872 958.63626408 316.06130934 958.62778175 294.14623773 C958.62756247 290.61331604 958.63318079 287.08040283 958.63818359 283.54748535 C958.64621948 277.4511853 958.651213 271.35488932 958.65447426 265.25858498 C958.66002283 255.61336678 958.67696762 245.96818289 958.69581604 236.32298279 C958.7021691 233.01013284 958.70847791 229.69728281 958.71479321 226.38443279 C958.71637697 225.55707137 958.71796073 224.72970994 958.71959249 223.87727696 C958.73745381 214.50365662 958.75372134 205.13003396 958.76876831 195.75640869 C958.77014418 194.90146624 958.77152005 194.04652379 958.77293762 193.16567399 C958.79492467 179.27470697 958.80564178 165.3837491 958.81313906 151.49276773 C958.8212167 137.18489039 958.84451556 122.87709083 958.88109273 108.56925792 C958.90305651 99.76645155 958.9128013 90.96380528 958.90659239 82.16097292 C958.90341203 76.13534135 958.91478575 70.10984666 958.93748681 64.08425746 C958.95011568 60.61336226 958.95637129 57.1427722 958.94507027 53.67186546 C958.93617659 49.90183086 958.9518853 46.13265145 958.97355652 42.36268616 C958.96511398 41.27746809 958.95667144 40.19225003 958.94797307 39.07414657 C959.0600804 28.49570454 962.0303291 18.97255569 969.35299683 11.14434814 C977.75081336 3.00055809 986.97403196 0.52518777 998.48995972 0.62286377 C999.5288887 0.61585449 1000.56781769 0.60884521 1001.63822937 0.60162354 C1005.03692174 0.58416762 1008.43476628 0.59562164 1011.83346558 0.60919189 C1014.21517597 0.60649363 1016.59688528 0.60260844 1018.97859192 0.59759521 C1023.95547028 0.59171711 1028.93206033 0.60020968 1033.90890503 0.61895752 C1040.26952822 0.64175801 1046.62947657 0.62860558 1052.99007511 0.60466766 C1057.90333591 0.59017485 1062.81643818 0.59483152 1067.7297039 0.60517883 C1070.07432575 0.60783583 1072.41896227 0.60461277 1074.76356697 0.59526062 C1078.04644734 0.58503646 1081.32825262 0.60067848 1084.61105347 0.62286377 C1085.56769897 0.61476685 1086.52434448 0.60666992 1087.50997925 0.59832764 C1097.54110795 0.72313103 1106.13722777 4.28176578 1113.48580933 11.14044189 C1122.14509104 20.60478154 1123.64171366 30.71811936 1123.61444378 43.16154194 C1123.61707333 44.67728806 1123.61707333 44.67728806 1123.61975601 46.22365531 C1123.62442473 49.62507437 1123.62194825 53.02645084 1123.61952209 56.4278717 C1123.62138963 58.88501717 1123.6236901 61.34216235 1123.62638742 63.79930705 C1123.63123718 69.14964049 1123.63295871 74.49996146 1123.6319313 79.85029602 C1123.63040723 87.80653302 1123.63456625 95.76276 1123.63980593 103.71899505 C1123.64948147 118.75523881 1123.65229025 133.79147917 1123.65286299 148.82772569 C1123.65332236 160.43839596 1123.65537981 172.04906489 1123.65856361 183.65973473 C1123.65946114 187.00068352 1123.66035096 190.34163233 1123.66123849 193.68258113 C1123.66145954 194.51312737 1123.66168059 195.34367361 1123.66190833 196.19938792 C1123.66806331 219.56398245 1123.67200882 242.92857651 1123.67156506 266.29317188 C1123.67154948 267.17423354 1123.6715339 268.05529519 1123.67151785 268.96305568 C1123.67143474 273.42874243 1123.6713357 277.89442918 1123.67123314 282.36011592 C1123.67120322 283.69049176 1123.67120322 283.69049176 1123.6711727 285.04774388 C1123.67113226 286.84130681 1123.67109046 288.63486975 1123.67104731 290.42843268 C1123.67043449 318.33642859 1123.67794208 346.24441235 1123.69161987 374.15240479 C1123.70697687 405.49961324 1123.71558633 436.84681372 1123.71465665 468.19402617 C1123.71458202 471.53591804 1123.71453331 474.8778099 1123.71450233 478.21970177 C1123.71449068 479.04257364 1123.71447903 479.86544552 1123.71446702 480.71325291 C1123.71443623 493.96127238 1123.72082487 507.20928132 1123.7294346 520.45729766 C1123.73790703 533.76927127 1123.73890424 547.08122944 1123.73232528 560.39320425 C1123.72862694 568.30313609 1123.73047045 576.21302107 1123.74026762 584.12294795 C1123.74696276 590.02686657 1123.74322198 595.93074843 1123.7353944 601.83466669 C1123.73385215 604.22494152 1123.73570267 606.6152214 1123.74125447 609.00549028 C1123.74829459 612.25101662 1123.7430364 615.49630041 1123.7346983 618.74181843 C1123.73966648 619.6726501 1123.74463466 620.60348178 1123.74975339 621.56252047 C1123.68666597 633.15540745 1120.76314802 643.63317712 1112.48580933 652.14044189 C1100.9213498 661.61990453 1088.18256912 661.60610607 1073.93112183 661.57403564 C1072.13952438 661.57860743 1070.34792867 661.58391593 1068.55633545 661.58992004 C1064.81611979 661.59881192 1061.0761181 661.59647341 1057.33590698 661.58648682 C1052.57632462 661.57500791 1047.81748542 661.5952122 1043.05800056 661.62440395 C1039.36189187 661.64287583 1035.66595764 661.64245167 1031.9698143 661.63676643 C1030.21658156 661.63661453 1028.46333598 661.64254892 1026.71014786 661.65505791 C1013.56410588 661.73565554 1000.8721212 661.14654812 990.41940308 652.11309814 C979.37419818 640.8447578 979.01497763 627.33758688 978.79830933 612.45294189 C978.76506215 610.86502443 978.73056594 609.27713261 978.6947937 607.68927002 C978.61074782 603.83980438 978.54354736 599.99038829 978.48580933 596.14044189 C977.9678479 596.66887695 977.44988647 597.19731201 976.91622925 597.74176025 C958.28347346 616.70122511 958.28347346 616.70122511 948.48580933 624.14044189 C947.21495671 625.14919611 945.94554317 626.15976475 944.67721558 627.17169189 C934.75114643 635.01862062 924.45598271 641.84500075 913.48580933 648.14044189 C912.84965698 648.51008057 912.21350464 648.87971924 911.55807495 649.26055908 C880.74399321 667.02531928 844.61358025 675.68348358 809.48580933 679.14044189 C808.58056519 679.23470459 807.67532104 679.32896729 806.74264526 679.42608643 C742.61538779 685.29304828 676.50841773 676.69920822 623.48580933 638.14044189 C622.82016968 637.65720459 622.15453003 637.17396729 621.46871948 636.67608643 C568.0184261 597.35263997 542.43256042 535.32658287 529.87319946 472.08978271 C529.52207121 470.32291109 529.16469912 468.55728314 528.80661011 466.79180908 C525.23616302 448.86670736 523.88468027 430.6597566 522.64356697 412.4495436 C522.50370688 410.4024088 522.35937485 408.35558061 522.21438694 406.3088026 C521.21021208 390.78392409 521.31107753 375.2331194 521.28520072 359.68332064 C521.27709659 355.45115791 521.26343436 351.21901237 521.25048828 346.98686218 C521.22886549 339.67584086 521.21067014 332.36481768 521.19488335 325.05378151 C521.17205394 314.48358852 521.1439302 303.91341468 521.11456407 293.34323808 C521.06704709 276.18881517 521.02374049 259.03438438 520.98312378 241.87994385 C520.94368753 225.22791939 520.90224219 208.5759019 520.85812378 191.92388916 C520.85539951 190.89538044 520.85267524 189.86687171 520.84986841 188.80719606 C520.83618759 183.64684937 520.82246759 178.48650279 520.8087281 173.32615626 C520.69501339 130.5975994 520.58814947 87.86902741 520.48580933 45.14044189 C518.56509136 47.86039158 516.64457376 50.58048268 514.72409058 53.30059814 C513.91349182 54.44848816 513.91349182 54.44848816 513.08651733 55.61956787 C509.20554932 61.1167441 505.33861682 66.62348859 501.48580933 72.14044189 C496.68372582 79.00890867 491.86294197 85.86369545 487.02487183 92.70684814 C483.16244462 98.17351099 479.32145678 103.65496355 475.48580933 109.14044189 C470.68332233 116.00862745 465.86294332 122.86369354 461.02487183 129.70684814 C457.16244462 135.17351099 453.32145678 140.65496355 449.48580933 146.14044189 C444.68332233 153.00862745 439.86294332 159.86369354 435.02487183 166.70684814 C431.16244462 172.17351099 427.32145678 177.65496355 423.48580933 183.14044189 C418.68332233 190.00862745 413.86294332 196.86369354 409.02487183 203.70684814 C405.16244462 209.17351099 401.32145678 214.65496355 397.48580933 220.14044189 C392.68332233 227.00862745 387.86294332 233.86369354 383.02487183 240.70684814 C379.16244462 246.17351099 375.32145678 251.65496355 371.48580933 257.14044189 C367.16673976 263.31727719 362.83645966 269.48581014 358.48580933 275.64044189 C357.01074933 277.72959436 355.53602692 279.81898455 354.06149292 281.9085083 C352.95831173 283.4711489 351.85441021 285.0332811 350.74996948 286.59503174 C341.85332037 299.17813547 341.85332037 299.17813547 333.23580933 311.95294189 C332.55002808 312.99063721 331.86424683 314.02833252 331.15768433 315.09747314 C328.25432895 320.38185128 327.18545578 325.45883199 327.11080933 331.45294189 C327.08244995 332.48032471 327.05409058 333.50770752 327.02487183 334.56622314 C328.12075559 343.06396589 332.4897678 350.23729739 337.20065308 357.23028564 C337.75938614 358.07519058 338.3181192 358.92009552 338.89378357 359.79060364 C340.72809002 362.55905797 342.57546598 365.31850848 344.42330933 368.07794189 C345.72734697 370.03974809 347.03072059 372.00199582 348.33346558 373.96466064 C358.34498507 389.02525301 368.46856669 404.01096083 378.60470581 418.987854 C387.77948584 432.55385518 396.8091858 446.21117121 405.79830933 459.9006958 C414.76286129 473.54797035 423.8323607 487.11920921 432.98580933 500.64044189 C443.99034751 516.89817831 454.85697175 533.24104653 465.62619019 549.65557861 C471.82886091 559.10468648 478.07179481 568.52339707 484.39205933 577.89434814 C485.68828482 579.82064326 486.98442852 581.74699343 488.28048706 583.67340088 C490.14082513 586.43800816 492.00405089 589.20037437 493.87817383 591.95565796 C495.59026346 594.4727307 497.29090049 596.99721088 498.98971558 599.52325439 C499.48938843 600.25053238 499.98906128 600.97781036 500.50387573 601.72712708 C507.8237446 612.67722925 510.43236379 623.05961018 507.89596558 636.19512939 C505.28328974 644.69535584 499.9440144 651.32473343 492.44284058 656.06231689 C485.51859469 659.67496692 479.57314299 661.25685534 471.75114441 661.28088379 C470.63129654 661.28659393 469.51144867 661.29230408 468.35766602 661.29818726 C467.1435202 661.29930511 465.92937439 661.30042297 464.67843628 661.30157471 C463.38825089 661.30653961 462.09806549 661.31150452 460.76878357 661.31661987 C457.2395877 661.32969117 453.71041081 661.33617865 450.18119454 661.34063053 C447.97162071 661.34357018 445.76205196 661.34767667 443.5524807 661.3521347 C436.62572738 661.36579662 429.69898581 661.37546929 422.77221996 661.3793366 C414.80153399 661.38381234 406.83101992 661.40134316 398.86038619 661.43033719 C392.68264621 661.452022 386.50495435 661.46204451 380.32717675 661.46337771 C376.64528443 661.46442102 372.96355398 661.4702266 369.28170204 661.48819733 C365.1677486 661.50788771 361.05415058 661.5033621 356.94015503 661.49688721 C355.13411804 661.51070938 355.13411804 661.51070938 353.29159546 661.52481079 C341.54153335 661.46710272 330.76193731 659.38827383 322.16744995 650.82720947 C317.554832 645.77614449 314.16510295 639.99541023 310.68377686 634.13427734 C309.20375607 631.64266978 307.70914247 629.1599167 306.2157135 626.67633057 C305.44298824 625.39081871 304.67102996 624.10484553 303.89982605 622.81842041 C300.12301457 616.52055719 296.27982834 610.26483823 292.42330933 604.01544189 C291.4424939 602.42385254 291.4424939 602.42385254 290.44186401 600.80010986 C288.45720067 597.5797957 286.47152212 594.36010902 284.48580933 591.14044189 C281.77641559 586.74526116 279.06809341 582.34942241 276.36080933 577.95294189 C275.6977478 576.87617187 275.03468628 575.79940186 274.35153198 574.69000244 C269.39486507 566.63374374 264.47395853 558.55618845 259.56344604 550.47174072 C255.20769724 543.3078924 250.8018036 536.17625149 246.37960815 529.05328369 C241.78096373 521.63766495 237.24525193 514.18468954 232.71627808 506.72637939 C228.31430408 499.48410731 223.86420249 492.27293165 219.3913269 485.07427979 C215.89219224 479.43509927 212.43574032 473.77156315 208.99996948 468.09356689 C206.17704975 463.43322147 203.33673753 458.78369855 200.48580933 454.14044189 C200.06928101 453.45997803 199.65275269 452.77951416 199.22360229 452.07843018 C193.23649652 442.37916175 187.46795534 435.36089476 176.34518433 431.79669189 C167.43664473 429.75210904 158.2306843 430.76110368 150.29440308 435.42950439 C148.23108603 436.89379391 146.35900912 438.44083605 144.48580933 440.14044189 C143.92893433 440.63157471 143.37205933 441.12270752 142.79830933 441.62872314 C134.71202116 449.77565847 133.97927255 461.73565978 133.96910095 472.61451721 C133.98018788 474.18387086 133.99162829 475.75322204 134.00338745 477.3225708 C134.00119653 479.01105565 133.99719212 480.69953896 133.99153137 482.38801575 C133.98302421 485.99798491 133.9866673 489.60765539 133.99995422 493.21760941 C134.02043732 498.93460919 134.01025131 504.65131353 133.99569702 510.36831665 C133.96904168 522.50071892 133.97565477 534.63302295 133.98580933 546.76544189 C133.99677649 559.874182 134.00190882 572.98276759 133.96851492 586.09148157 C133.95519666 591.76615521 133.96102107 597.44037845 133.98188019 603.11502481 C133.99090544 606.65228565 133.98335741 610.1893752 133.97146797 613.72662163 C133.96934884 615.3571513 133.97398964 616.98770715 133.98617363 618.61819267 C134.07841406 631.70715202 132.54049232 642.13006434 123.12252808 651.90606689 C113.78362309 659.81992416 104.19553729 661.28749493 92.41647339 661.30157471 C91.41728882 661.30653961 90.41810425 661.31150452 89.38864136 661.31661987 C86.09289859 661.33118882 82.79720396 661.33803476 79.50143433 661.34356689 C77.20226033 661.34932271 74.90308634 661.35508039 72.60391235 661.36083984 C67.78557106 661.37133487 62.96724637 661.37718733 58.14889526 661.38067627 C51.99116611 661.38615757 45.83365845 661.41018439 39.67599869 661.43864822 C34.92661915 661.45732132 30.17729247 661.4624827 25.42787933 661.46401215 C23.15860534 661.46702868 20.88933206 661.47502322 18.6200943 661.48819733 C15.43746843 661.50535527 12.25537743 661.50335369 9.07272339 661.49688721 C7.68207672 661.51070938 7.68207672 661.51070938 6.26333618 661.52481079 C-4.84154053 661.45454445 -13.80610053 658.05205434 -22.20169067 650.82794189 C-30.90997364 640.70750494 -32.67821597 631.0155868 -32.62720776 618.03311539 C-32.62727242 617.02544007 -32.62733708 616.01776475 -32.62740371 614.97955382 C-32.62637836 611.59372824 -32.61813854 608.20795881 -32.60993958 604.82214355 C-32.60767755 602.37381073 -32.6058535 599.92547746 -32.6044305 597.477144 C-32.60030015 592.14910351 -32.59301111 586.82108119 -32.58293724 581.49304962 C-32.56796073 573.56988569 -32.558739 565.64672231 -32.5506081 557.72354877 C-32.53501271 542.74910265 -32.51248273 527.77467177 -32.48770078 512.8002384 C-32.46858204 501.23633177 -32.45109723 489.67242377 -32.43476295 478.10851288 C-32.43004313 474.78021549 -32.42531595 471.45191812 -32.42058688 468.12362075 C-32.41941172 467.29620249 -32.41823656 466.46878423 -32.41702578 465.6162927 C-32.3839062 442.34135951 -32.34856558 419.06643054 -32.30879498 395.79150772 C-32.30729654 394.91392824 -32.3057981 394.03634876 -32.30425425 393.13217597 C-32.29665509 388.68420905 -32.28903946 384.23624216 -32.2814199 379.78827527 C-32.27990701 378.90488866 -32.27839413 378.02150205 -32.2768354 377.11134614 C-32.27377585 375.32492292 -32.27071496 373.5384997 -32.26765274 371.75207649 C-32.22006757 343.95803641 -32.18057307 316.16399479 -32.14724731 288.36993408 C-32.1098014 257.14537469 -32.06566882 225.92083446 -32.01207095 194.69629836 C-32.00637978 191.3667436 -32.00071407 188.0371888 -31.99506569 184.70763397 C-31.99367088 183.88780974 -31.99227608 183.06798551 -31.99083901 182.22331812 C-31.96854822 169.0306172 -31.95260406 155.83791594 -31.9388586 142.64520368 C-31.92486577 129.38595476 -31.90344986 116.12673359 -31.87453683 102.86750868 C-31.85757046 94.99132989 -31.84607856 87.11518805 -31.84248705 79.23899156 C-31.83919132 73.3566656 -31.82552899 67.47439331 -31.80784354 61.59209201 C-31.80229848 59.21325737 -31.80010149 56.83441208 -31.80159064 54.45557144 C-31.80311944 51.22066133 -31.79240799 47.98600932 -31.77869701 44.75113297 C-31.78206085 43.82904986 -31.78542468 42.90696675 -31.78889045 41.95694172 C-31.70371361 29.91394949 -29.69727765 18.46846493 -21.32669067 9.32794189 C-15.63560045 4.03710417 -7.8293769 0.02896385 0 0 Z " fill="#FFFFFF" transform="translate(2828.514190673828,16.85955810546875)"/>
<path d="M0 0 C2.81625282 0.01850687 5.63217832 0.02050686 8.44848633 0.02026367 C10.28117141 0.02517318 12.11385432 0.030999 13.9465332 0.0378418 C14.76759048 0.03895462 15.58864777 0.04006744 16.43458557 0.04121399 C20.55082893 0.07422564 24.58651091 0.26910044 28.6803894 0.70602417 C35.22453953 1.31558227 41.72983642 1.3505112 48.29833984 1.34765625 C50.31227542 1.35298942 52.32621099 1.35832856 54.34014595 1.36389291 C56.48273124 1.36905406 58.62531051 1.37199155 60.76790047 1.37447548 C65.25362527 1.38044159 69.7392731 1.39703155 74.22496033 1.41581726 C75.76733871 1.42215256 77.30971714 1.42847821 78.8520956 1.43479443 C79.62388019 1.43796024 80.39566478 1.44112605 81.19083679 1.44438779 C91.61663202 1.48630524 102.04238765 1.51945584 112.46826172 1.53173828 C119.52623334 1.54013785 126.58400982 1.56268815 133.64188379 1.60109395 C137.36671739 1.62077101 141.0912599 1.6332867 144.81614876 1.62825966 C148.97063933 1.62271937 153.12440642 1.64809726 157.27880859 1.67578125 C158.49727478 1.66917984 159.71574097 1.66257843 160.97113037 1.65577698 C171.85209397 1.77455044 180.68446555 4.70235991 188.72387695 12.20581055 C198.35233155 22.72942758 198.87312193 34.05884841 198.86863708 47.72167969 C198.87392735 49.61507017 198.87392735 49.61507017 198.8793245 51.54671097 C198.8889852 55.0397407 198.89256696 58.53275408 198.89516747 62.02579522 C198.89907366 65.79863271 198.90871142 69.57145593 198.91772461 73.34428406 C198.93265014 79.88442695 198.94420195 86.42456873 198.95367241 92.96472168 C198.96758974 102.45438771 198.98878773 111.94402747 199.01210094 121.43367457 C199.05001902 136.87545453 199.08497076 152.3172393 199.11669922 167.7590332 C199.11859971 168.68300549 199.1205002 169.60697778 199.12245829 170.55894923 C199.14919187 183.6212344 199.17309027 196.68352324 199.19584329 209.74581587 C199.19744059 210.66251158 199.19903789 211.57920728 199.20068359 212.52368164 C199.20227706 213.43924469 199.20387053 214.35480775 199.20551228 215.29811513 C199.23243431 230.65424401 199.26690313 246.0103454 199.30733734 261.36644459 C199.33190475 270.80921311 199.350346 280.25195228 199.36049295 289.69474751 C199.36797815 296.19485523 199.38264185 302.6949235 199.40255719 309.19500488 C199.41376396 312.92539968 199.42209491 316.65573149 199.42154884 320.38614464 C199.42152184 335.2474987 199.68138613 350.05526863 200.63734436 364.88647461 C200.71726889 366.13036831 200.79719342 367.37426201 200.87953991 368.65584946 C203.98557917 412.96391514 215.58894511 458.24554769 246.72387695 491.20581055 C247.86276367 492.4587793 247.86276367 492.4587793 249.0246582 493.73706055 C267.84230609 513.69423866 296.08303881 522.31519413 322.93823242 523.3269043 C338.08294194 523.74199843 352.92347818 523.67013102 367.72387695 520.20581055 C368.57385254 520.00713379 369.42382812 519.80845703 370.29956055 519.60375977 C399.62496837 512.48697746 424.30871037 496.79636503 440.72387695 471.20581055 C441.3477832 470.25319336 441.97168945 469.30057617 442.61450195 468.3190918 C455.79400098 447.03598189 462.05384224 422.50800223 466.72387695 398.20581055 C467.17509884 395.90011629 467.62913171 393.59502437 468.08642578 391.29052734 C468.44548956 389.47439313 468.79599004 387.65657158 469.14575195 385.83862305 C469.72387695 383.20581055 469.72387695 383.20581055 470.72387695 381.20581055 C470.82001936 379.30874766 470.85049089 377.40824159 470.8513689 375.50874424 C470.85437655 374.28887398 470.8573842 373.06900373 470.86048299 371.8121677 C470.8587952 370.44611321 470.85702413 369.08005881 470.85517883 367.71400452 C470.85687988 366.27231252 470.85902906 364.83062099 470.86159009 363.38893026 C470.86619811 360.24483825 470.86760581 357.10076596 470.86662483 353.95667076 C470.86503585 348.84144691 470.87022616 343.72624271 470.87625122 338.61102295 C470.88437447 331.18294849 470.88931168 323.75487748 470.89254189 316.32679939 C470.8980339 304.58287736 470.91492769 292.83898446 470.93388367 281.09507751 C470.94024096 277.07843499 470.94654935 273.0617924 470.95286083 269.0451498 C470.95444459 268.04122435 470.95602836 267.0372989 470.95766011 266.00295146 C470.97560762 254.56723667 470.99182761 243.1315198 471.00683594 231.69580078 C471.00821181 230.65011141 471.00958768 229.60442205 471.01100525 228.52704512 C471.03291758 211.59553884 471.04368667 194.66404003 471.05120669 177.73252208 C471.05928209 160.35165138 471.08258833 142.97084472 471.11916035 125.59001058 C471.14117307 114.86919861 471.15085374 104.14851838 471.14466002 93.42768496 C471.14148166 86.07497514 471.15284047 78.72237764 471.17555443 71.36970259 C471.18820325 67.12936278 471.19441519 62.88927325 471.18313789 58.64892387 C471.17293304 54.76174254 471.18129319 50.87504597 471.20400085 46.98792165 C471.20897499 45.58672571 471.20730593 44.18548585 471.19806818 42.78431154 C471.12570647 30.86488469 473.06736397 19.9777437 481.72387695 11.20581055 C490.43549959 3.97352005 499.32945892 1.75183495 510.46923828 1.78588867 C512.0223748 1.77318436 512.0223748 1.77318436 513.60688782 1.76022339 C517.00668859 1.73695477 520.40603404 1.73582892 523.8059082 1.73706055 C526.18568601 1.72995243 528.56546213 1.72225248 530.94523621 1.71398926 C535.92561612 1.70056733 540.90583757 1.69896526 545.88623047 1.70483398 C552.24454308 1.71072498 558.6020908 1.68015141 564.96025562 1.6397171 C569.87359154 1.61377067 574.78674503 1.61096908 579.70014 1.61460876 C582.04312752 1.61292375 584.38612403 1.60334141 586.72904396 1.58546448 C614.62266753 1.39605206 614.62266753 1.39605206 626.0402832 12.31518555 C633.09675056 20.23938555 635.02593799 27.98725145 634.98114586 38.39590836 C634.98465193 39.42467828 634.98815801 40.45344821 634.99177033 41.51339298 C635.00110928 44.97701995 634.99615451 48.4404797 634.99130249 51.90411377 C634.99503749 54.40592039 634.9996384 56.90772585 635.00503314 59.40952945 C635.01473328 64.85747948 635.0181756 70.30537864 635.01612091 75.75333595 C635.01307291 83.85477634 635.02139044 91.95617734 635.03187016 100.05761008 C635.05122215 115.36851149 635.05683883 130.67939951 635.05798428 145.99031171 C635.05890303 157.81359911 635.06301795 169.63688124 635.06938553 181.46016693 C635.07118059 184.86232526 635.07296022 188.26448361 635.07473528 191.66664195 C635.07539843 192.93529008 635.07539843 192.93529008 635.07607497 194.22956746 C635.08838518 218.0228425 635.09627592 241.81611571 635.09538841 265.60939407 C635.09535726 266.50664197 635.0953261 267.40388987 635.095294 268.3283271 C635.09512778 272.87604792 635.0949297 277.42376875 635.09472458 281.97148958 C635.09466475 283.32630213 635.09466475 283.32630213 635.0946037 284.70848462 C635.09452283 286.53499261 635.09443923 288.36150059 635.09435292 290.18800857 C635.09312738 318.60623516 635.10814043 347.02441402 635.13549805 375.44262695 C635.1662151 407.36373779 635.18343077 439.28481727 635.1815716 471.20594382 C635.18142234 474.60935958 635.18132493 478.01277534 635.18126297 481.4161911 C635.18122801 482.67321977 635.18122801 482.67321977 635.18119234 483.95564295 C635.18113078 497.44523489 635.19390595 510.93478543 635.2111275 524.42436506 C635.22807622 537.98057508 635.23006379 551.53672448 635.21690886 565.09293923 C635.20951458 573.1471274 635.21319184 581.20113149 635.23279354 589.25530019 C635.24619167 595.26840199 635.2386957 601.28128634 635.22304709 607.29439065 C635.21996445 609.72775251 635.22365685 612.16113423 635.23476724 614.59447268 C635.24886492 617.90075864 635.23831927 621.20609459 635.22165489 624.51234818 C635.23159125 625.45820064 635.24152761 626.4040531 635.25176507 627.37856776 C635.14161216 637.70821571 631.43612417 645.50170959 624.36450195 652.9362793 C616.14408885 660.00145683 607.41835522 662.34374247 596.83520508 662.3828125 C595.66574341 662.3926693 595.66574341 662.3926693 594.47265625 662.40272522 C591.90014533 662.42238346 589.32769275 662.43410754 586.75512695 662.4440918 C585.87126816 662.44816732 584.98740936 662.45224285 584.07676697 662.45644188 C579.39338417 662.47727636 574.71003039 662.49158629 570.02661133 662.50097656 C565.21984383 662.51200219 560.41354419 662.54636491 555.60694122 662.58614826 C551.88512388 662.61246289 548.16341522 662.62068174 544.44151306 662.62425804 C542.67151246 662.62909009 540.90151558 662.64060589 539.13160706 662.65929604 C525.89874159 662.79028787 513.20314352 662.26136288 502.6574707 653.1862793 C494.6662258 645.00130724 491.30679785 635.53196412 491.2121582 624.2331543 C491.194207 623.42463516 491.1762558 622.61611603 491.15776062 621.78309631 C491.10419151 619.23655193 491.06993616 616.69018898 491.03637695 614.14331055 C491.00315651 612.40174911 490.96866258 610.66021147 490.93286133 608.91870117 C490.84849702 604.68120318 490.78143437 600.44375396 490.72387695 596.20581055 C490.12494629 596.87475342 489.52601562 597.54369629 488.90893555 598.23291016 C488.11310059 599.11986572 487.31726562 600.00682129 486.49731445 600.9206543 C485.32048096 602.2334436 485.32048096 602.2334436 484.11987305 603.57275391 C477.19311867 611.18484337 469.78702984 617.82029675 461.72387695 624.20581055 C460.62830226 625.09188351 459.53326831 625.9786254 458.4387207 626.8659668 C423.25042592 655.20721634 382.21666119 671.25279291 337.72387695 678.20581055 C336.6682959 678.37097168 335.61271484 678.53613281 334.52514648 678.70629883 C267.87345518 688.52982962 192.87199724 681.04707292 137.20996094 640.62841797 C75.74688305 594.66899538 49.66472495 525.29176308 38.16088867 451.59936523 C33.10233118 416.16330687 33.39379491 380.30212196 33.31915998 344.59875751 C33.30492271 338.66216976 33.28182649 332.72561844 33.25888963 326.78905941 C33.21385389 315.06088832 33.17706486 303.33270738 33.14575195 291.60449219 C33.11538632 280.23793827 33.08095635 268.87140814 33.04125977 257.50488281 C33.03756744 256.44704971 33.03756744 256.44704971 33.03380053 255.36784624 C33.02142246 251.82858392 33.0089666 248.28932188 32.99647212 244.75005996 C32.89355448 215.56867809 32.80428405 186.38726313 32.72387695 157.20581055 C29.54935644 156.54852065 26.37312494 155.89988498 23.1965332 155.25268555 C22.30599243 155.06818848 21.41545166 154.88369141 20.4979248 154.69360352 C-17.87287288 146.91205152 -61.13476038 154.53034878 -95.27612305 173.20581055 C-96.47769393 173.83910147 -97.67951377 174.47192028 -98.8815918 175.10424805 C-132.78504339 193.30238988 -155.40540173 225.39343075 -166.69262695 261.60864258 C-169.27573136 270.31005634 -171.12750821 279.06243201 -172.58862305 288.01831055 C-172.74806396 288.99477539 -172.90750488 289.97124023 -173.07177734 290.97729492 C-175.76622124 308.84712027 -175.42437844 326.86426821 -175.41809547 344.88548374 C-175.41787788 348.76818796 -175.42347913 352.65088423 -175.42849731 356.53358459 C-175.4365648 363.24550241 -175.44153807 369.95741648 -175.44478798 376.66933823 C-175.45031507 387.28414231 -175.46724058 397.89891484 -175.48612976 408.51370239 C-175.49248433 412.1536159 -175.49879298 415.79352949 -175.50510693 419.43344307 C-175.50669069 420.34273845 -175.50827445 421.25203384 -175.50990621 422.18888362 C-175.52779867 432.51092994 -175.54404936 442.83297843 -175.55908203 453.1550293 C-175.5604579 454.09736428 -175.56183377 455.03969926 -175.56325134 456.01058985 C-175.58521617 471.3058503 -175.59594849 486.60110244 -175.60345278 501.89637588 C-175.61152711 517.62900041 -175.63482016 533.36155416 -175.67140645 549.09413826 C-175.69339774 558.78404862 -175.70310649 568.47381334 -175.69690611 578.16374739 C-175.69372864 584.7996097 -175.7050806 591.43534754 -175.72780053 598.07117133 C-175.74044768 601.89631363 -175.74666286 605.72117851 -175.73538399 609.54633141 C-175.72329969 613.69795397 -175.74216651 617.84887448 -175.76387024 622.00045776 C-175.75120643 623.80221303 -175.75120643 623.80221303 -175.73828679 625.64036739 C-175.84649819 636.84273777 -178.89543512 644.79896149 -186.63549805 652.9362793 C-195.56609326 660.61183524 -204.73656283 662.3566441 -216.06420898 662.35107422 C-217.53591553 662.35611214 -217.53591553 662.35611214 -219.03735352 662.36125183 C-222.27841461 662.37074435 -225.51942392 662.37270422 -228.76049805 662.3737793 C-231.01865663 662.37699348 -233.276815 662.38035768 -235.53497314 662.38386536 C-240.26933271 662.38985268 -245.00367403 662.3917057 -249.73803711 662.39111328 C-255.79159181 662.39101178 -261.8450289 662.40465346 -267.89855576 662.42188549 C-272.56382785 662.43302929 -277.22907174 662.43503174 -281.89435577 662.43450356 C-284.12537287 662.43568048 -286.35639077 662.44008609 -288.58739471 662.44783592 C-291.7151654 662.45768205 -294.84268385 662.45473929 -297.97045898 662.44873047 C-298.88402161 662.45434998 -299.79758423 662.45996948 -300.73883057 662.46575928 C-312.06605511 662.41072978 -320.93752063 659.81345537 -329.5456543 652.19799805 C-337.44798939 644.01710198 -339.89115108 634.62262699 -339.77948761 623.45011902 C-339.78530137 622.42094459 -339.79111514 621.39177016 -339.79710507 620.33140862 C-339.81165723 616.89631571 -339.7978416 613.4619427 -339.78405762 610.02685547 C-339.78866839 607.53381836 -339.79502249 605.04078396 -339.80296659 602.54775524 C-339.81617602 597.13437895 -339.81699766 591.72122107 -339.80677795 586.30784225 C-339.79162221 578.25789507 -339.7993963 570.20808214 -339.81161118 562.1581358 C-339.8326577 547.77939369 -339.83085515 533.40072273 -339.81929553 519.02197388 C-339.80922926 506.43882579 -339.80660839 493.85570378 -339.81138611 481.27255249 C-339.81169165 480.43755154 -339.81199719 479.6025506 -339.81231199 478.74224659 C-339.81355736 475.35261851 -339.81483097 471.96299044 -339.81615104 468.57336239 C-339.82838424 436.78267652 -339.81729764 404.99203593 -339.79576346 373.20135705 C-339.77678134 344.96355948 -339.77847986 316.72583406 -339.79760742 288.48803711 C-339.81903069 256.75511855 -339.82751663 225.02224001 -339.81515837 193.28931522 C-339.81387552 189.90589969 -339.81262415 186.52248415 -339.81138611 183.1390686 C-339.8110698 182.30599887 -339.81075349 181.47292914 -339.81042759 180.61461487 C-339.80587966 168.04005249 -339.81119516 155.46551906 -339.82130432 142.89096069 C-339.83274283 128.59165185 -339.82987891 114.29242523 -339.80818135 99.99312663 C-339.79644137 91.99245291 -339.79566189 83.99195726 -339.81076604 75.99128818 C-339.8208008 70.01644046 -339.80990672 64.04182335 -339.79086775 58.06698954 C-339.7863987 55.65058694 -339.78867465 53.2341605 -339.7983709 50.81777322 C-339.81054453 47.53201097 -339.79804846 44.24721414 -339.77948761 40.96150208 C-339.78885227 40.0245189 -339.79821694 39.08753573 -339.80786538 38.12215912 C-339.69773312 28.35961475 -336.61081076 19.73345162 -330.33081055 12.21362305 C-322.54069375 4.60122754 -313.31313111 1.90277204 -302.66967773 1.9152832 C-301.42180733 1.90520737 -301.42180733 1.90520737 -300.14872742 1.89492798 C-297.41508915 1.87602566 -294.68169749 1.87202753 -291.94799805 1.86987305 C-290.03379213 1.86343904 -288.11958719 1.85671023 -286.2053833 1.84970093 C-282.19752729 1.83774706 -278.18975734 1.83401809 -274.18188477 1.83520508 C-269.07004578 1.835408 -263.95876442 1.80812518 -258.84705734 1.77366066 C-254.89369215 1.7513176 -250.9404595 1.74736982 -246.98703766 1.74842453 C-245.10375297 1.74607897 -243.22046404 1.73731498 -241.33724213 1.7217598 C-228.05371894 1.62232206 -216.94340194 2.2491314 -206.28393555 11.15112305 C-198.99039153 18.61494436 -196.06301512 27.48383305 -195.95727539 37.79345703 C-195.94220695 38.87763664 -195.94220695 38.87763664 -195.92683411 39.98371887 C-195.89619935 42.34810668 -195.87902252 44.71238232 -195.86206055 47.0769043 C-195.84333298 48.72600761 -195.8237584 50.3751015 -195.80337524 52.02418518 C-195.75221569 56.34608384 -195.7125038 60.66801351 -195.67523193 64.99005127 C-195.63509043 69.40775116 -195.58404455 73.82532384 -195.53393555 78.24291992 C-195.43736799 86.89712965 -195.35290238 95.55140274 -195.27612305 104.20581055 C-194.29663696 102.61687988 -194.29663696 102.61687988 -193.29736328 100.99584961 C-184.22168437 86.33238954 -184.22168437 86.33238954 -179.33862305 79.95581055 C-178.59467285 78.97451172 -178.59467285 78.97451172 -177.83569336 77.97338867 C-173.00924605 71.69931322 -167.76058046 65.90517617 -162.27612305 60.20581055 C-161.65995117 59.52647461 -161.0437793 58.84713867 -160.40893555 58.1472168 C-132.97621176 28.82468314 -90.66120794 11.95166554 -52.08862305 4.39331055 C-51.10595459 4.19858154 -50.12328613 4.00385254 -49.11083984 3.80322266 C-32.82240148 0.79557622 -16.5350554 -0.1122058 0 0 Z " fill="#FFFFFF" transform="translate(4365.276123046875,15.794189453125)"/>
<path d="M0 0 C2.06287082 0.00563731 4.12573343 0.00845985 6.18861008 0.0110817 C26.14786693 0.04796137 45.87602801 0.39918683 65.65885544 3.31805801 C66.85945602 3.48966446 68.06005661 3.6612709 69.29703903 3.83807755 C118.78238123 11.11170134 169.43423714 25.76778848 207.65885544 59.31805801 C208.22072556 59.80693497 208.78259567 60.29581192 209.36149216 60.79950333 C225.85208864 75.22939002 239.00598885 92.22955929 249.65885544 111.31805801 C250.06345993 112.0330043 250.46806442 112.74795059 250.88492966 113.48456192 C259.56934221 128.9335342 265.93967726 144.9619393 270.97135544 161.94305801 C271.20177536 162.70408829 271.43219528 163.46511856 271.66959763 164.24921036 C276.02294151 179.68408378 277.2898316 195.88615652 278.32110214 211.82329178 C278.4154453 213.23683912 278.4154453 213.23683912 278.51169438 214.67894297 C279.84115444 234.90584045 280.09882347 255.08508652 280.06568849 275.34903657 C280.06083277 280.38807249 280.0735709 285.42707483 280.0837059 290.46609879 C280.10064926 300.25894525 280.10178794 310.0517269 280.096493 319.84458417 C280.09241253 327.80301794 280.09394006 335.76143289 280.09924126 343.7198658 C280.09998968 344.86250321 280.1007381 346.00514061 280.1015092 347.1824034 C280.10304095 349.50490786 280.10457929 351.82741231 280.10612417 354.14991676 C280.11975394 375.77230883 280.11447356 397.39466439 280.10293896 419.01705556 C280.09296105 438.77826748 280.1060424 458.53938637 280.12987315 478.30058397 C280.15425629 498.67503331 280.16387736 519.04943929 280.15722042 539.42390293 C280.15373359 550.83049327 280.15592789 562.2370117 280.17347145 573.64359093 C280.18818114 583.32529804 280.18884207 593.00688221 280.17140054 602.6885869 C280.16288857 607.62185666 280.16074738 612.5549066 280.17605209 617.4881649 C280.18989687 622.00647841 280.18513909 626.52438358 280.16581286 631.04267346 C280.16205282 632.67276679 280.16497493 634.30289283 280.17542451 635.932957 C280.25300909 648.96583338 278.66927068 659.35363112 269.29557419 669.08368301 C260.33431603 676.67751956 251.02395262 678.46380524 239.67521286 678.47919083 C238.79146484 678.48415573 237.90771683 678.48912064 236.99718857 678.49423599 C234.08622573 678.50878875 231.17531736 678.5156478 228.26432419 678.52118301 C226.23179753 678.52693975 224.19927088 678.53269741 222.16674423 678.53845596 C217.90914788 678.5489461 213.65157031 678.55480189 209.39396286 678.55829239 C203.95356435 678.56377554 198.51341629 678.58780828 193.07309628 678.61626434 C188.87534496 678.63493848 184.67765345 678.64009885 180.47986412 678.64162827 C178.47491523 678.64464409 176.46996713 678.65263624 174.46505928 678.66581345 C171.65340896 678.6829754 168.84236386 678.68096912 166.03068161 678.67450333 C164.80295532 678.6883255 164.80295532 678.6883255 163.55042648 678.70242691 C157.02715091 678.65571957 150.84710483 677.45256396 145.35416794 673.77508926 C139.61164044 667.76114877 137.92176089 662.46792137 136.78385544 654.31805801 C135.90676348 648.75378664 134.63046063 644.4325267 130.65885544 640.31805801 C122.99494232 634.93042138 115.95748721 633.36991743 106.65885544 634.31805801 C99.56582009 636.34618892 94.33077729 641.11948199 88.89078903 645.88129044 C43.50089193 685.33336492 -19.63296089 696.52576526 -77.96614456 696.56805801 C-78.81331039 696.56873276 -79.66047623 696.5694075 -80.53331375 696.57010269 C-141.6576679 696.49348153 -197.28899735 679.29720382 -241.65364456 636.25555801 C-266.89292547 610.15889177 -283.40979271 576.48166646 -290.65364456 541.06805801 C-290.80091995 540.35021133 -290.94819534 539.63236465 -291.09993362 538.89276505 C-293.81417735 524.47294795 -294.72411301 509.9648768 -294.65364456 495.31805801 C-294.65182175 494.52156845 -294.64999893 493.72507889 -294.64812088 492.90445328 C-294.46751994 445.64054032 -282.91831691 396.7581149 -251.34114456 360.31805801 C-250.28153519 359.09409317 -250.28153519 359.09409317 -249.20051956 357.84540176 C-246.95025619 355.30008638 -244.66046995 352.80055202 -242.34114456 350.31805801 C-241.58188675 349.50465958 -240.82262894 348.69126114 -240.04036331 347.85321426 C-174.03557371 279.47182012 -57.89428471 268.01792096 44.6172123 252.20167732 C46.62796355 251.89789934 48.63850865 251.59279435 50.648983 251.28718948 C51.30616412 251.18732711 51.96334524 251.08746473 52.64044094 250.98457623 C53.29419106 250.88523313 53.94794119 250.78589003 54.62150192 250.68353653 C59.70105204 249.91198878 64.78265153 249.15673583 69.86613083 248.41156387 C72.18773626 248.06186399 74.50927309 247.71170833 76.83073044 247.36102676 C77.86791718 247.21340897 78.90510391 247.06579117 79.97372055 246.9137001 C91.17583161 245.19416595 101.20864863 242.28303716 108.65885544 233.31805801 C112.41573888 227.10396973 113.94104414 220.4843995 112.65885544 213.31805801 C106.87327833 193.90908425 94.73057268 176.86585495 76.76432419 167.13837051 C66.50155746 161.89528938 55.92897793 158.60487799 44.65885544 156.31805801 C43.8548027 156.15434708 43.05074997 155.99063614 42.222332 155.82196426 C19.27177161 151.41574799 -7.53592225 150.74444966 -30.34114456 156.31805801 C-31.16259964 156.51673477 -31.98405472 156.71541153 -32.83040237 156.9201088 C-65.11754607 164.97680727 -91.60891901 177.90502662 -111.84114456 204.94305801 C-120.61741749 216.36230049 -130.48100549 222.12909851 -144.65364456 224.25165176 C-152.98660829 224.40171573 -160.93899111 221.6515779 -168.77083206 219.04462051 C-169.74771484 218.72462585 -170.72459763 218.4046312 -171.73108292 218.07493973 C-174.89475619 217.03690657 -178.05556056 215.99045616 -181.21614456 214.94305801 C-183.40736678 214.22033459 -185.5986926 213.49792523 -187.79011917 212.77582169 C-192.20216944 211.3210606 -196.61299913 209.86266564 -201.02327347 208.40253067 C-205.91063737 206.78664094 -210.80371237 205.18947598 -215.70143509 203.60528946 C-219.00645551 202.53548418 -222.30873078 201.45738182 -225.61049271 200.37756729 C-227.1221602 199.88513168 -228.63495987 199.39615622 -230.14894485 198.91089249 C-243.73336841 194.55080393 -254.00941359 189.7775807 -261.27864456 176.88055801 C-265.33388344 163.28358058 -261.22677137 152.00299173 -254.90364456 139.75555801 C-254.37649857 138.72124649 -253.84935257 137.68693497 -253.30623245 136.62128067 C-245.43921511 121.43841597 -236.28321374 107.44468139 -225.34114456 94.31805801 C-224.65399368 93.47863663 -224.65399368 93.47863663 -223.95296097 92.62225723 C-212.72731113 78.92282845 -200.3925004 66.13309575 -186.34114456 55.31805801 C-185.37434769 54.53430801 -184.40755081 53.75055801 -183.41145706 52.94305801 C-169.96632281 42.13080516 -154.98714994 33.52535286 -139.34114456 26.31805801 C-138.64005569 25.9924086 -137.93896683 25.66675919 -137.21663284 25.33124161 C-94.24152417 5.62591009 -46.81081166 -0.12989069 0 0 Z M77.8251152 383.29266739 C76.64219391 383.50739197 75.45927261 383.72211655 74.24050522 383.94334793 C72.31483467 384.29898567 72.31483467 384.29898567 70.35026169 384.66180801 C68.99914436 384.90916645 67.64799314 385.15633988 66.29681015 385.40333939 C61.93718853 386.20213366 57.57922687 387.00977966 53.22135544 387.81805801 C51.72809231 388.09438871 50.23482652 388.37070502 48.74155807 388.64700699 C26.29270924 392.8055971 3.88478946 397.07786776 -18.34114456 402.31805801 C-19.56140335 402.60455215 -20.78166214 402.8910463 -22.03889847 403.18622208 C-50.51457082 409.9703706 -80.61116568 418.47542549 -104.34114456 436.31805801 C-105.21899612 436.97547989 -106.09684769 437.63290176 -107.00130081 438.31024551 C-121.81107488 449.79172948 -132.26447346 463.47914002 -135.34114456 482.31805801 C-136.9169367 500.96867118 -134.95549721 519.64039915 -123.30598831 535.00165176 C-106.30139169 554.70539071 -83.3437046 562.83873307 -57.95149612 564.91962051 C-11.52772932 567.8845539 30.35692735 554.68921122 65.65885544 524.31805801 C73.41610117 517.30080512 80.24946634 509.58034324 86.65885544 501.31805801 C87.40908981 500.3731752 88.15932419 499.42829239 88.93229294 498.45477676 C107.48242706 474.55485993 119.4856681 439.98630864 116.65885544 409.31805801 C115.0973442 400.27848378 110.55573869 393.24567021 103.47135544 387.44305801 C95.87694896 382.45491376 86.51675329 381.70391383 77.8251152 383.29266739 Z " fill="#FFFFFF" transform="translate(1826.3411445617676,-0.3180580139160156)"/>
<path d="M0 0 C2.06287082 0.00563731 4.12573343 0.00845985 6.18861008 0.0110817 C26.14786693 0.04796137 45.87602801 0.39918683 65.65885544 3.31805801 C66.85945602 3.48966446 68.06005661 3.6612709 69.29703903 3.83807755 C132.40536746 13.11408168 195.72623248 35.49419192 235.09635544 88.31805801 C275.68895947 144.31161069 279.98408668 206.2870898 279.94962287 273.15685773 C279.94920698 278.21585078 279.96032431 283.27482254 279.96973801 288.33380508 C279.98617268 298.18897222 279.99183909 308.04411542 279.99296276 317.89929514 C279.99391973 325.90899955 279.99806187 333.91869619 280.00436401 341.92839813 C280.02191251 364.69812269 280.03121056 387.46782858 280.02970307 410.23755996 C280.0295832 412.0691228 280.0295832 412.0691228 280.02946091 413.93768692 C280.02937915 415.1602357 280.02929738 416.38278448 280.02921315 417.64238019 C280.02839749 437.52391873 280.04762199 457.40538204 280.07573764 477.28689878 C280.10446038 497.76043665 280.11827892 518.23393775 280.11655009 538.70749629 C280.11588697 550.1790891 280.12134775 561.65060254 280.14290619 573.12217712 C280.16110773 582.86819057 280.16547208 592.61408844 280.15188734 602.36011152 C280.14535845 607.32773825 280.14523899 612.2951431 280.16259384 617.26274872 C280.17832767 621.81295019 280.17545798 626.3627538 280.15802558 630.91294558 C280.15495693 632.5548107 280.15858297 634.19670556 280.16974573 635.83853559 C280.25269828 648.9086057 278.69897325 659.32279936 269.29557419 669.08368301 C260.32870428 676.682275 251.01443124 678.46382591 239.65934372 678.47919083 C238.77398941 678.48415573 237.8886351 678.48912064 236.97645187 678.49423599 C234.06068253 678.50878738 231.14496756 678.51564714 228.22916794 678.52118301 C226.19424565 678.52693934 224.15932337 678.53269701 222.12440109 678.53845596 C217.86260858 678.54894533 213.60083482 678.55480179 209.33903122 678.55829239 C203.88956648 678.56377904 198.44035134 678.58781958 192.99096489 678.61626434 C188.78896492 678.63492393 184.58702477 678.64009805 180.38498688 678.64162827 C178.37642042 678.64464676 176.36785481 678.65264805 174.35932922 678.66581345 C171.54508006 678.68294677 168.73143696 678.68097616 165.91715622 678.67450333 C164.68403702 678.6883255 164.68403702 678.6883255 163.42600632 678.70242691 C155.00400752 678.64201775 148.53117695 676.06150582 142.35026169 670.25555801 C138.2502403 665.55899771 137.63136045 660.33383022 136.78385544 654.31805801 C135.90676348 648.75378664 134.63046063 644.4325267 130.65885544 640.31805801 C122.99494232 634.93042138 115.95748721 633.36991743 106.65885544 634.31805801 C99.56582009 636.34618892 94.33077729 641.11948199 88.89078903 645.88129044 C43.50089193 685.33336492 -19.63296089 696.52576526 -77.96614456 696.56805801 C-78.81331039 696.56873276 -79.66047623 696.5694075 -80.53331375 696.57010269 C-141.6576679 696.49348153 -197.28899735 679.29720382 -241.65364456 636.25555801 C-269.78713599 607.16636412 -285.73802579 569.86248556 -292.34114456 530.31805801 C-292.45973831 529.63759415 -292.57833206 528.95713028 -292.70051956 528.2560463 C-301.56531303 475.15962711 -290.47025338 414.42553765 -259.34114456 370.31805801 C-253.60881426 362.46818778 -246.98903763 355.39007483 -240.34114456 348.31805801 C-239.71981644 347.6309877 -239.09848831 346.94391739 -238.45833206 346.23602676 C-227.98512936 335.08183106 -214.44637659 326.09049671 -201.34114456 318.31805801 C-200.63747757 317.89846817 -199.93381058 317.47887833 -199.20882034 317.04657364 C-127.04164438 274.51311222 -36.63488258 264.45960341 44.6172123 252.20167732 C46.62796355 251.89789934 48.63850865 251.59279435 50.648983 251.28718948 C51.30616412 251.18732711 51.96334524 251.08746473 52.64044094 250.98457623 C53.29419106 250.88523313 53.94794119 250.78589003 54.62150192 250.68353653 C59.70105204 249.91198878 64.78265153 249.15673583 69.86613083 248.41156387 C72.18773626 248.06186399 74.50927309 247.71170833 76.83073044 247.36102676 C77.86791718 247.21340897 78.90510391 247.06579117 79.97372055 246.9137001 C91.28188345 245.1778869 101.03168546 242.21114833 108.65885544 233.31805801 C112.83218241 227.15958091 113.87484667 220.60479337 112.65885544 213.31805801 C109.89650445 204.39717794 105.97757125 196.01212263 100.65885544 188.31805801 C100.08651169 187.48790176 99.51416794 186.65774551 98.92448044 185.80243301 C85.9641825 168.34351927 65.28777963 160.50387197 44.65885544 156.31805801 C43.8548027 156.15434708 43.05074997 155.99063614 42.222332 155.82196426 C19.27177161 151.41574799 -7.53592225 150.74444966 -30.34114456 156.31805801 C-31.16259964 156.51673477 -31.98405472 156.71541153 -32.83040237 156.9201088 C-62.72256386 164.37918087 -91.26651797 176.6894664 -109.84114456 202.38055801 C-118.07022001 213.63226398 -127.42742492 221.34625591 -141.34114456 223.75555801 C-151.13763019 225.22272037 -160.32860807 221.85472753 -169.53255081 218.79071426 C-170.58436035 218.44574402 -171.63616989 218.10077377 -172.71985245 217.74534988 C-176.11643025 216.62966536 -179.51015076 215.50558473 -182.90364456 214.38055801 C-185.24500949 213.60777456 -187.58648149 212.83531543 -189.92805862 212.0631752 C-194.57664419 210.52944544 -199.22405557 208.99221799 -203.87092972 207.45331192 C-208.71044203 205.85282718 -213.55526334 204.27005205 -218.40594864 202.70378494 C-221.44846495 201.72105408 -224.48839874 200.73050524 -227.52788162 199.73843765 C-228.88506511 199.29747196 -230.24338069 198.85997291 -231.60289383 198.42624283 C-243.68448446 194.56657389 -254.11790722 189.89999685 -260.47395706 178.23993301 C-264.15169031 169.17057142 -263.79079526 160.68264657 -260.30525589 151.62665176 C-259.04418743 148.80275103 -257.71460387 146.02651865 -256.34114456 143.25555801 C-255.84912552 142.25041153 -255.35710648 141.24526505 -254.85017776 140.20965958 C-238.67412283 107.5822789 -215.30519211 77.61108587 -186.34114456 55.31805801 C-185.37434769 54.53430801 -184.40755081 53.75055801 -183.41145706 52.94305801 C-169.96632281 42.13080516 -154.98714994 33.52535286 -139.34114456 26.31805801 C-138.64005569 25.9924086 -137.93896683 25.66675919 -137.21663284 25.33124161 C-94.24152417 5.62591009 -46.81081166 -0.12989069 0 0 Z M77.8251152 383.29266739 C76.0507106 383.61476181 76.0507106 383.61476181 74.24045944 383.94336319 C72.95669418 384.18044998 71.67292892 384.41753677 70.35026169 384.66180801 C68.99928195 384.90912215 67.64826806 385.15624977 66.29722214 385.40320206 C61.9374492 386.20196767 57.57933689 387.00958483 53.22135544 387.81805801 C52.48214733 387.95491516 51.74293922 388.09177231 50.98133087 388.23277664 C-38.07337061 402.40780886 -38.07337061 402.40780886 -115.34114456 445.31805801 C-116.32534378 446.17657364 -116.32534378 446.17657364 -117.32942581 447.05243301 C-128.41465419 457.37570556 -135.02201912 472.37627207 -135.67708206 487.44696426 C-136.00455511 507.14212896 -132.9480561 525.25889281 -118.73567581 540.01337051 C-97.25035182 560.69255674 -69.0782447 565.80240008 -40.11214066 565.29462051 C-6.45146094 564.20794949 24.30966504 555.32966074 51.65885544 535.31805801 C52.20316208 534.92038223 52.74746872 534.52270645 53.3082695 534.11297989 C66.40505742 524.44718148 77.7825779 513.274035 87.65885544 500.31805801 C88.06200974 499.79663223 88.46516403 499.27520645 88.88053513 498.73797989 C107.14801941 474.95233932 119.97435533 439.78908082 116.65885544 409.31805801 C114.88309901 399.6036258 110.07005182 392.2821682 102.01041794 386.57196426 C94.34334512 382.48370783 86.24197377 381.75414106 77.8251152 383.29266739 Z " fill="#FFFFFF" transform="translate(2441.3411445617676,-0.3180580139160156)"/>
<path d="M0 0 C1.2070459 0.19867676 2.4140918 0.39735352 3.65771484 0.60205078 C22.17297272 3.7084815 40.15949686 8.11919963 58 14 C58.95132812 14.31163086 59.90265625 14.62326172 60.8828125 14.94433594 C104.82419026 29.56567467 145.71616096 53.94173905 180 85 C180.85416504 85.76957031 180.85416504 85.76957031 181.72558594 86.5546875 C192.01816651 95.85045081 202.03055856 105.40319155 211 116 C211.79664063 116.9075 212.59328125 117.815 213.4140625 118.75 C229.18500229 136.8343975 242.51871202 157.04798002 253.96337891 178.10742188 C254.93949613 179.88953698 255.94348772 181.65630309 256.94921875 183.421875 C274.75528492 215.34999365 285.62947478 251.28966465 291.75 287.1875 C292.04825684 288.93027222 292.04825684 288.93027222 292.35253906 290.70825195 C295.27332533 308.7777989 296.38232587 326.77243671 296.3125 345.0625 C296.31100952 346.03801819 296.30951904 347.01353638 296.3079834 348.01861572 C296.26380548 364.18872473 295.42318434 379.99079395 293 396 C292.86078125 396.97372559 292.7215625 397.94745117 292.578125 398.95068359 C287.75568068 432.15522212 277.6447515 464.82843379 263 495 C262.42064697 496.21792236 262.42064697 496.21792236 261.82958984 497.46044922 C252.63142413 516.77170256 241.71466027 534.80560883 229 552 C228.56977539 552.58330078 228.13955078 553.16660156 227.69628906 553.76757812 C210.06724181 577.52068941 189.4326802 599.88589944 166 618 C165.30310059 618.54237305 164.60620117 619.08474609 163.88818359 619.64355469 C134.13176678 642.70276422 101.42473824 661.16952905 66 674 C65.11989258 674.31952637 64.23978516 674.63905273 63.33300781 674.96826172 C44.56464709 681.69435278 25.46085161 686.41096649 5.8125 689.75 C4.65113525 689.94867676 3.48977051 690.14735352 2.29321289 690.35205078 C-15.75450243 693.27059631 -33.73159835 694.38585132 -52 694.3125 C-53.46484833 694.30926727 -53.46484833 694.30926727 -54.95928955 694.30596924 C-133.50928479 694.02951416 -211.2749417 667.25975586 -272 617 C-272.53882813 616.55736816 -273.07765625 616.11473633 -273.6328125 615.65869141 C-289.02816679 602.97667711 -304.24982723 589.38197196 -317 574 C-317.4439209 573.46987305 -317.8878418 572.93974609 -318.34521484 572.39355469 C-331.63410675 556.48813023 -343.58322423 539.92608932 -354 522 C-354.63566895 520.91017822 -354.63566895 520.91017822 -355.28417969 519.79833984 C-377.10778641 482.13123078 -391.11080731 441.1500591 -397.8125 398.1875 C-397.9177298 397.51594879 -398.02295959 396.84439758 -398.13137817 396.15249634 C-400.01878894 383.97558643 -401.14208654 371.9357274 -401.23828125 359.61328125 C-401.25297203 358.04117134 -401.25297203 358.04117134 -401.26795959 356.43730164 C-401.44431911 332.65664252 -401.16648282 309.46103988 -397 286 C-396.67854004 284.18653076 -396.67854004 284.18653076 -396.35058594 282.33642578 C-393.19175331 265.17435479 -388.59467909 248.51947664 -383 232 C-382.66661621 231.01112793 -382.33323242 230.02225586 -381.98974609 229.00341797 C-367.77942999 187.54119425 -345.05308143 147.72676139 -315.265625 115.4765625 C-313.4079748 113.44595866 -311.60758511 111.38597326 -309.8125 109.30078125 C-305.64794841 104.53080046 -301.22854265 100.03655738 -296.75 95.5625 C-295.90880615 94.72211182 -295.0676123 93.88172363 -294.20092773 93.01586914 C-288.38849413 87.26057946 -282.45679378 82.02083498 -276 77 C-274.12230452 75.39898926 -272.24745955 73.79463127 -270.375 72.1875 C-224.53626976 34.05720835 -166.4362272 9.6663394 -107.77539062 0.43798828 C-105.96473694 0.15224649 -104.15595512 -0.14570193 -102.34960938 -0.45751953 C-69.61495379 -5.99089403 -32.69289496 -5.61964357 0 0 Z M-178 90 C-179.18094238 90.56992676 -179.18094238 90.56992676 -180.38574219 91.15136719 C-198.50577597 100.01989595 -215.37293377 111.25855588 -231 124 C-231.51449707 124.4129834 -232.02899414 124.8259668 -232.55908203 125.25146484 C-240.77298381 131.87719532 -248.32866264 139.12786389 -255.8125 146.5625 C-257.11960937 147.85571167 -257.11960937 147.85571167 -258.453125 149.17504883 C-264.38939018 155.14011438 -269.79210247 161.39243647 -275 168 C-275.53939209 168.68006104 -276.07878418 169.36012207 -276.63452148 170.06079102 C-313.16376726 216.63265285 -335.62242727 275.58468929 -337 335 C-337.02046387 335.75667969 -337.04092773 336.51335937 -337.06201172 337.29296875 C-338.87687492 412.76727971 -310.92958982 486.03018411 -259.03515625 540.83984375 C-258.02500369 541.89473117 -257.01325061 542.948088 -256 544 C-255.20311768 544.82975342 -255.20311768 544.82975342 -254.39013672 545.67626953 C-247.32089157 552.99746283 -240.05598231 559.7571288 -232 566 C-230.71087892 567.01815501 -229.42182081 568.03638973 -228.1328125 569.0546875 C-182.47800166 604.83847568 -124.1782515 628.91771803 -65.5859375 629.203125 C-64.62081741 629.21004868 -63.65569733 629.21697235 -62.66133118 629.22410583 C-59.56584567 629.24128838 -56.47053094 629.24769149 -53.375 629.25 C-52.32253082 629.25133942 -51.27006165 629.25267883 -50.18569946 629.25405884 C-31.32891267 629.24884068 -13.08678643 628.84563025 5 623 C5.94271002 619.74360341 5.94271002 619.74360341 6 616 C3.24319696 612.01927148 0.72540474 610.68823213 -3.89453125 609.84765625 C-5.86496201 609.56967785 -7.83788336 609.30899239 -9.8125 609.0625 C-58.09243397 601.94644321 -103.61370747 581.38818018 -141 550 C-141.51594727 549.57283691 -142.03189453 549.14567383 -142.56347656 548.70556641 C-154.3349203 538.94578438 -165.41000089 528.66613811 -174.91015625 516.640625 C-176.25909237 514.93617487 -177.64023315 513.25650344 -179.05859375 511.609375 C-222.81802194 460.54332669 -242.43276737 390.31290178 -237.5390625 323.90625 C-233.57613686 279.01402741 -218.42284036 235.27545289 -193 198 C-192.60699707 197.4215332 -192.21399414 196.84306641 -191.80908203 196.24707031 C-185.72972981 187.36205171 -179.09723009 179.08835774 -172 171 C-171.27296875 170.16082031 -170.5459375 169.32164062 -169.796875 168.45703125 C-160.0507786 157.39340701 -149.66431622 147.03364065 -138 138 C-137.01902344 137.21367187 -136.03804687 136.42734375 -135.02734375 135.6171875 C-98.50453411 106.55947961 -52.58992927 86.25221469 -6.12573242 80.97314453 C-1.74105021 80.4462013 1.45713433 79.70322698 5 77 C6.41441874 74.17116253 6.31900332 72.12623255 6 69 C2.65366929 65.46294578 -1.57988978 65.09033246 -6.1875 64.4375 C-7.01266113 64.31528076 -7.83782227 64.19306152 -8.68798828 64.06713867 C-66.84110344 55.88918905 -125.05802076 64.42651103 -178 90 Z M-96 187 C-96.50805176 187.40653809 -97.01610352 187.81307617 -97.53955078 188.23193359 C-116.24107774 203.29082827 -131.27591045 220.68334672 -144 241 C-144.37866211 241.59941406 -144.75732422 242.19882813 -145.14746094 242.81640625 C-172.84407425 287.30394125 -178.96819359 342.63278337 -167.4609375 393.09765625 C-160.0047715 424.01408006 -145.19272956 453.20067803 -124 477 C-122.74509766 478.43472656 -122.74509766 478.43472656 -121.46484375 479.8984375 C-104.83413153 498.66370239 -85.36113231 513.64108736 -63 525 C-62.30729004 525.35787598 -61.61458008 525.71575195 -60.90087891 526.08447266 C-20.81697137 546.62309981 25.628147 551.59120328 69.625 543.1875 C70.42486328 543.04666992 71.22472656 542.90583984 72.04882812 542.76074219 C75.68902978 542.00064777 77.64393092 541.42768829 80.05859375 538.52734375 C81.2503629 536.02023051 81.2503629 536.02023051 80.4375 533.375 C78.47537248 530.13322409 76.35160956 528.45958835 72.75195312 527.2355957 C71.93662109 527.05085693 71.12128906 526.86611816 70.28125 526.67578125 C69.35940918 526.45639893 68.43756836 526.2370166 67.48779297 526.01098633 C66.50182129 525.78048584 65.51584961 525.54998535 64.5 525.3125 C40.07443817 519.22624998 16.89894326 508.49969102 -3 493 C-3.87914062 492.34257812 -4.75828125 491.68515625 -5.6640625 491.0078125 C-43.24510652 461.82857288 -66.69808383 418.67936606 -74 372 C-74.103125 371.34636475 -74.20625 370.69272949 -74.3125 370.01928711 C-75.36870873 362.12884205 -75.24382764 354.13415493 -75.25 346.1875 C-75.25067474 345.40721436 -75.25134949 344.62692871 -75.25204468 343.82299805 C-75.23534515 331.65325411 -74.69124405 319.91236511 -72 308 C-71.82839355 307.22382324 -71.65678711 306.44764648 -71.47998047 305.64794922 C-64.20005455 273.64620157 -49.61614371 243.9361521 -27 220 C-25.84935973 218.64991542 -24.7033304 217.29588411 -23.5625 215.9375 C1.07771733 187.88125254 37.93282629 170.82853958 73.83984375 162.95703125 C76.88486414 162.03486809 78.14261824 161.50909466 80 159 C81.00478037 157.1477633 81.00478037 157.1477633 81 155 C80.09950331 152.35388245 80.09950331 152.35388245 78 150 C75.1868489 148.9987602 72.77719197 148.34437582 69.875 147.8125 C69.06659668 147.65233398 68.25819336 147.49216797 67.42529297 147.32714844 C64.95461995 146.85392805 62.48018141 146.42025857 60 146 C59.32130859 145.87995605 58.64261719 145.75991211 57.94335938 145.63623047 C4.27692408 136.5151114 -53.87203586 153.07803162 -96 187 Z M35 255 C34.00484375 255.83144531 33.0096875 256.66289062 31.984375 257.51953125 C10.17412753 276.33724237 -3.9592362 303.33611752 -7 332 C-7.93604507 346.47302943 -7.82017537 360.9461028 -4 375 C-3.68289063 376.19753906 -3.36578125 377.39507812 -3.0390625 378.62890625 C1.59879388 394.1377664 9.63386805 408.60490984 20 421 C20.68320312 421.845625 21.36640625 422.69125 22.0703125 423.5625 C41.26383998 446.22644389 70.34562915 459.63365137 99.5625 462.625 C117.94323181 464.04685689 137.16718877 461.88137739 154 454 C156.37288352 452.08040952 156.37288352 452.08040952 156.125 448.6875 C154.74823066 444.17475606 153.5313041 443.48114611 149.55859375 441.29296875 C148.71425781 440.86628906 147.86992188 440.43960938 147 440 C121.46194551 426.97862044 101.95840083 407.17801264 92.4609375 379.73046875 C83.83040638 352.94627192 85.24425605 324.06985707 97.75 298.75 C109.85080661 275.37576805 127.52642511 259.39180224 151.26953125 248.47265625 C154.24209638 247.14495017 154.24209638 247.14495017 156 244 C156.58350505 241.54290625 156.58350505 241.54290625 156 239 C144.28324554 228.06155777 120.83628311 227.24156266 105.53125 227.71875 C79.43956382 229.07769199 55.09719615 238.20607228 35 255 Z M171 326 C165.29598656 334.48611803 163.121898 340.71366225 164 351 C165.68950275 358.20583099 169.1109267 363.52668372 175 368 C181.33011198 371.88089108 187.4996403 373.88754256 195 373 C203.15755187 370.94889141 209.77141075 367.85969944 214.5 360.7421875 C218.62766062 353.26080262 220.06851632 346.2204172 217.9375 337.875 C215.19796481 329.97869269 210.2582714 324.11191063 203 320 C192.71144986 315.08955562 178.83019336 317.73479589 171 326 Z " fill="#FFFFFF" transform="translate(401,3)"/>
<path d="M0 0 C1.19551483 -0.00979385 2.39102966 -0.01958771 3.62277222 -0.02967834 C87.00385638 -0.57182374 168.0451559 15.83877165 230.1875 75.23828125 C230.86425781 75.87378906 231.54101562 76.50929688 232.23828125 77.1640625 C254.11799572 98.23900586 269.94953947 126.30534305 279.75 154.80078125 C280.27025757 156.28082642 280.27025757 156.28082642 280.80102539 157.79077148 C283.90439857 167.19948652 284.65535541 176.14300416 280.1875 185.23828125 C275.56965234 192.96034872 269.4081372 198.25402352 260.7686615 201.00984192 C250.77352382 203.45407153 240.67494411 205.34404791 230.56640625 207.25 C229.5896739 207.43480234 228.61294155 207.61960468 227.60661125 207.8100071 C222.44413874 208.78661961 217.28089178 209.75900614 212.11694336 210.7277832 C206.81865219 211.72259844 201.52319043 212.73171016 196.22824192 213.74414349 C192.121055 214.52677291 188.01192121 215.29877933 183.90220451 216.0680027 C181.95006416 216.43524721 179.9986496 216.80637401 178.04803658 217.18164635 C161.28435881 220.40036904 146.50904415 223.07853598 131.375 213.30078125 C129.96949987 212.29329886 128.57257114 211.27366974 127.1875 210.23828125 C126.1975 209.53703125 125.2075 208.83578125 124.1875 208.11328125 C117.76937991 202.56631874 113.07707589 194.78326137 108.6875 187.61328125 C95.30204106 166.29456403 72.47718328 154.31972047 48.56689453 148.61279297 C34.57986482 145.50541107 21.14111773 143.99965546 6.8125 143.98828125 C5.67099991 143.98726913 5.67099991 143.98726913 4.50643921 143.98623657 C-20.93458979 144.02210253 -46.33494106 148.25696181 -65.43359375 166.6328125 C-68.98420404 170.52157615 -71.59161669 174.47169157 -73.8125 179.23828125 C-74.15023438 179.95886719 -74.48796875 180.67945313 -74.8359375 181.421875 C-78.78362726 191.87057681 -78.65636818 206.69598562 -74.12890625 216.88671875 C-62.28061587 238.05191404 -35.50129883 245.25528196 -13.8125 252.23828125 C-12.53966523 252.65252085 -11.26688057 253.06691444 -9.99414062 253.48144531 C12.11947453 260.65467314 34.48712585 266.8483372 56.9375 272.86328125 C57.62446583 273.04738178 58.31143166 273.23148232 59.01921463 273.42116165 C64.45314616 274.87722931 69.88739437 276.33211439 75.32180977 277.78637505 C198.73245446 310.81638908 198.73245446 310.81638908 242.96484375 352.171875 C244.96288666 354.02945795 247.01877197 355.75649376 249.125 357.48828125 C276.8648746 381.82346299 291.18148329 420.25080194 294.1875 456.23828125 C294.34529499 459.56912488 294.39689296 462.89623398 294.42578125 466.23046875 C294.43552979 467.16615189 294.44527832 468.10183502 294.45532227 469.06587219 C294.6238799 489.43637817 294.57969737 509.24411036 290.1875 529.23828125 C290.00026367 530.10791504 289.81302734 530.97754883 289.62011719 531.87353516 C281.84607815 566.80300416 264.77781579 597.47699804 240.1875 623.23828125 C239.38699219 624.09164062 238.58648438 624.945 237.76171875 625.82421875 C189.16178158 676.25361345 113.39067893 694.57545026 45.70562744 696.30157471 C39.40806512 696.41610859 33.11095786 696.43311198 26.8125 696.42578125 C25.36484253 696.42487488 25.36484253 696.42487488 23.88793945 696.4239502 C-40.99875447 696.3140999 -110.27878524 684.32689161 -163.8125 645.23828125 C-164.36019043 644.83931641 -164.90788086 644.44035156 -165.47216797 644.02929688 C-180.57172252 632.92260646 -194.86075401 620.71469332 -206.57421875 606.02734375 C-208.00354485 604.24629867 -209.46211957 602.48808306 -210.95703125 600.76171875 C-230.95730043 577.48212615 -255.98161164 535.1775215 -255.05859375 503.5234375 C-254.06921449 494.3363444 -249.30752588 485.8517207 -242.25 479.92578125 C-230.93185785 472.44624831 -215.83233022 471.55814617 -202.74609375 469.56640625 C-200.61856654 469.23640495 -198.49113175 468.9058073 -196.36378479 468.574646 C-191.92616244 467.88609952 -187.48755184 467.20445112 -183.0480957 466.52783203 C-177.38540962 465.66425509 -171.72549386 464.78385021 -166.06620693 463.89830399 C-161.68065574 463.2139139 -157.29378799 462.53828991 -152.90648079 461.86525726 C-150.81988171 461.54415116 -148.73368214 461.22043687 -146.64791679 460.89395905 C-112.99765801 455.64283427 -112.99765801 455.64283427 -97.92578125 466.51171875 C-90.62108865 472.47969311 -86.51191968 479.37448984 -82.30639648 487.65209961 C-67.3709732 516.71811933 -42.44992965 534.93651721 -11.9375 545.36328125 C4.59362642 550.05827897 20.94908248 551.62473 38.0625 551.67578125 C39.21262573 551.6849054 39.21262573 551.6849054 40.38598633 551.69421387 C64.88105786 551.82142352 93.75183591 547.39978411 112.12890625 529.61328125 C124.30718938 515.56319369 129.16266711 499.45785364 127.96875 480.82421875 C126.67866856 470.42913946 123.46027779 459.20399203 115.1875 452.23828125 C101.34562616 441.97207122 85.44885058 436.03138384 69.25 430.55078125 C68.50707703 430.29783295 67.76415405 430.04488464 66.99871826 429.78427124 C43.08047391 421.66472445 18.77085293 414.86662473 -5.57421875 408.16015625 C-146.46305523 369.33373648 -146.46305523 369.33373648 -191.77734375 327.12109375 C-193.47159563 325.55366687 -195.18949061 324.10338918 -197 322.67578125 C-223.16263073 300.00150129 -235.88559995 262.79051941 -238.8125 229.23828125 C-238.96984952 226.04155057 -239.0216644 222.84868048 -239.05078125 219.6484375 C-239.06062042 218.75472946 -239.07045959 217.86102142 -239.08059692 216.94023132 C-239.49940541 169.01572244 -230.26371454 125.97395183 -200.8125 87.23828125 C-200.14089844 86.34109375 -199.46929688 85.44390625 -198.77734375 84.51953125 C-182.62002341 63.84812334 -162.40125556 48.24249136 -139.8125 35.23828125 C-139.20293457 34.87927734 -138.59336914 34.52027344 -137.96533203 34.15039062 C-97.51375469 10.43935118 -46.4418098 0.31582361 0 0 Z " fill="#FFFFFF" transform="translate(1194.8125,-0.23828125)"/>
</svg>
