<?xml version="1.0" encoding="UTF-8"?>
<!DOCTYPE svg PUBLIC "-//W3C//DTD SVG 1.1//EN" "http://www.w3.org/Graphics/SVG/1.1/DTD/svg11.dtd">
<svg width="128" height="24" viewBox="0 0 128 24" xmlns="http://www.w3.org/2000/svg" version="1.1" style="shape-rendering:geometricPrecision; text-rendering:geometricPrecision; image-rendering:optimizeQuality; fill-rule:evenodd; clip-rule:evenodd" xmlns:xlink="http://www.w3.org/1999/xlink">
<g><path style="opacity:0.988" fill="#fefffe" d="M 321.5,-0.5 C 338.833,-0.5 356.167,-0.5 373.5,-0.5C 490.485,11.5488 580.985,66.5488 645,164.5C 702.264,262.569 711.93,365.235 674,472.5C 628.151,584.011 546.984,655.511 430.5,687C 410.578,691.599 390.578,694.766 370.5,696.5C 355.5,696.5 340.5,696.5 325.5,696.5C 205.762,685.242 113.596,629.242 49,528.5C 20.7239,480.508 4.22387,428.841 -0.5,373.5C -0.5,356.167 -0.5,338.833 -0.5,321.5C 12.2136,201.046 69.8803,109.213 172.5,46C 218.891,19.7012 268.558,4.20122 321.5,-0.5 Z M 337.5,63.5 C 359.335,63.3668 381.002,65.2001 402.5,69C 406.79,71.5307 407.623,75.0307 405,79.5C 317.253,92.3452 249.253,135.679 201,209.5C 157.965,282.571 150.299,359.237 178,439.5C 211.509,522.675 271.009,577.842 356.5,605C 372.061,608.979 387.728,612.312 403.5,615C 406.924,618.265 407.257,621.765 404.5,625.5C 299.583,644.248 210.416,615.248 137,538.5C 69.7536,459.494 49.0869,369.494 75,268.5C 101.135,186.368 152.968,126.534 230.5,89C 264.758,74.0175 300.424,65.5175 337.5,63.5 Z M 415.5,146.5 C 436.844,145.501 457.844,147.668 478.5,153C 482.155,156.806 481.822,160.473 477.5,164C 412.918,177.931 366.752,214.764 339,274.5C 312.272,344.782 321.938,409.449 368,468.5C 396.656,501.45 432.489,522.283 475.5,531C 481.323,534.089 482.323,538.089 478.5,543C 392.366,560.849 321.866,535.682 267,467.5C 226.492,409.113 217.492,346.113 240,278.5C 264.959,215.541 309.792,174.041 374.5,154C 388.113,150.4 401.779,147.9 415.5,146.5 Z M 501.5,230.5 C 519.467,229.588 536.8,232.421 553.5,239C 557.393,242.588 557.393,246.254 553.5,250C 511.089,268.791 488.755,301.458 486.5,348C 488.744,394.511 511.077,427.178 553.5,446C 557.393,449.746 557.393,453.412 553.5,457C 507.442,472.854 466.108,464.854 429.5,433C 390.093,390.489 382.926,342.989 408,290.5C 429.366,255.313 460.533,235.313 501.5,230.5 Z M 586.5,320.5 C 605.818,319.65 616.818,328.816 619.5,348C 617.047,366.789 606.38,375.789 587.5,375C 570.162,370.5 562.662,359.334 565,341.5C 568.225,330.331 575.392,323.331 586.5,320.5 Z"/></g>
<g><path style="opacity:0.993" fill="#fefffe" d="M 1181.5,-0.5 C 1201.17,-0.5 1220.83,-0.5 1240.5,-0.5C 1286.98,2.28985 1330.98,14.4565 1372.5,36C 1424.77,65.0254 1459.61,108.192 1477,165.5C 1478.1,182.134 1470.93,193.634 1455.5,200C 1421.86,206.441 1388.19,212.774 1354.5,219C 1336.26,220.129 1321.76,213.296 1311,198.5C 1297.7,173.209 1277.2,156.709 1249.5,149C 1221.73,141.614 1193.73,140.614 1165.5,146C 1149.98,149.505 1136.82,157.005 1126,168.5C 1115.77,183.41 1113.77,199.41 1120,216.5C 1122.56,221.116 1125.73,225.282 1129.5,229C 1136.68,234.093 1144.35,238.426 1152.5,242C 1165.69,247.065 1179.03,251.731 1192.5,256C 1229.66,266.942 1266.99,277.275 1304.5,287C 1349.21,299.026 1390.54,318.026 1428.5,344C 1462.05,369.918 1481.55,404.084 1487,446.5C 1497.73,567.582 1445.23,646.082 1329.5,682C 1259.66,699.208 1189.66,699.875 1119.5,684C 1056.73,669.072 1007.23,635.238 971,582.5C 955.945,558.551 945.445,532.718 939.5,505C 941.24,486.593 951.24,475.926 969.5,473C 1003.81,467.616 1038.14,462.449 1072.5,457.5C 1086.72,458.523 1097.88,464.857 1106,476.5C 1127.24,521.907 1163.07,546.74 1213.5,551C 1234.81,552.858 1255.81,551.191 1276.5,546C 1311.21,534.622 1326.37,510.789 1322,474.5C 1320.16,463.299 1314.66,454.465 1305.5,448C 1298.27,443.22 1290.61,439.22 1282.5,436C 1237.35,420.629 1191.68,406.962 1145.5,395C 1109.5,384.667 1074.83,371 1041.5,354C 1014.57,339.735 992.737,319.902 976,294.5C 958.13,259.953 951.463,223.287 956,184.5C 966.13,107.371 1006.96,53.5376 1078.5,23C 1111.75,9.85349 1146.08,2.02016 1181.5,-0.5 Z"/></g>
<g><path style="opacity:0.994" fill="#fefffe" d="M 1797.5,-0.5 C 1818.17,-0.5 1838.83,-0.5 1859.5,-0.5C 1900,2.03508 1939.33,10.5351 1977.5,25C 2031.92,47.4193 2069.42,86.2527 2090,141.5C 2100.47,171.582 2105.47,202.582 2105,234.5C 2105.67,372.833 2105.67,511.167 2105,649.5C 2101.71,662.796 2093.54,671.63 2080.5,676C 2047.87,677.623 2015.2,677.956 1982.5,677C 1975.86,676.261 1970.69,673.094 1967,667.5C 1964.4,661.084 1962.73,654.418 1962,647.5C 1955.88,635.443 1946.05,630.61 1932.5,633C 1929.38,634.059 1926.38,635.392 1923.5,637C 1890.3,667.088 1851.3,685.088 1806.5,691C 1760.8,698.367 1715.47,696.7 1670.5,686C 1596.09,662.697 1550.93,612.863 1535,536.5C 1527.64,491.778 1531.64,448.111 1547,405.5C 1565.52,363.309 1595.36,331.809 1636.5,311C 1661.2,298.82 1686.86,289.153 1713.5,282C 1738.94,275.312 1764.61,269.645 1790.5,265C 1831.74,257.775 1873.08,251.108 1914.5,245C 1931.87,240.979 1940.04,230.145 1939,212.5C 1931.91,188.747 1917.07,171.914 1894.5,162C 1843.61,144.81 1794.28,148.477 1746.5,173C 1733.04,181.455 1721.88,192.288 1713,205.5C 1698.64,222.466 1681.14,226.966 1660.5,219C 1635.23,210.465 1609.9,202.132 1584.5,194C 1567.81,186.782 1560.98,174.282 1564,156.5C 1594.19,84.6422 1646.36,36.8089 1720.5,13C 1745.89,6.10301 1771.56,1.60301 1797.5,-0.5 Z M 1909.5,381.5 C 1929.47,382.639 1940.47,393.139 1942.5,413C 1941.8,442.745 1933.3,469.911 1917,494.5C 1870.42,555.14 1809.92,575.974 1735.5,557C 1701.29,543.443 1686.46,518.276 1691,481.5C 1694.73,461.429 1705.23,445.929 1722.5,435C 1740.56,423.64 1759.89,414.974 1780.5,409C 1823.25,398.084 1866.25,388.918 1909.5,381.5 Z"/></g>
<g><path style="opacity:0.994" fill="#fefffe" d="M 2412.5,-0.5 C 2433.17,-0.5 2453.83,-0.5 2474.5,-0.5C 2516.86,2.07386 2557.86,11.2405 2597.5,27C 2649.46,49.9605 2685.29,88.1271 2705,141.5C 2715.39,171.243 2720.39,201.909 2720,233.5C 2720.67,372.167 2720.67,510.833 2720,649.5C 2716.71,662.796 2708.54,671.63 2695.5,676C 2662.87,677.623 2630.2,677.956 2597.5,677C 2591.19,675.759 2586.02,672.592 2582,667.5C 2579.4,661.084 2577.73,654.418 2577,647.5C 2570.88,635.443 2561.05,630.61 2547.5,633C 2544.38,634.059 2541.38,635.392 2538.5,637C 2505.3,667.09 2466.3,685.09 2421.5,691C 2375.8,698.367 2330.47,696.7 2285.5,686C 2205.7,660.193 2159.87,605.693 2148,522.5C 2142.38,474.854 2150.04,429.52 2171,386.5C 2190.42,353.408 2217.26,328.241 2251.5,311C 2285.03,294.823 2320.03,282.823 2356.5,275C 2413.84,263.165 2471.51,253.165 2529.5,245C 2546.88,240.97 2555.05,230.137 2554,212.5C 2546.91,188.747 2532.07,171.914 2509.5,162C 2458.61,144.81 2409.28,148.477 2361.5,173C 2348.04,181.455 2336.88,192.288 2328,205.5C 2312.55,223.32 2294.05,227.487 2272.5,218C 2248.23,209.799 2223.9,201.799 2199.5,194C 2182.78,186.725 2175.95,174.225 2179,156.5C 2209.19,84.6422 2261.36,36.8089 2335.5,13C 2360.89,6.10301 2386.56,1.60301 2412.5,-0.5 Z M 2524.5,381.5 C 2544.71,382.708 2555.71,393.374 2557.5,413.5C 2556.79,450.874 2543.96,483.207 2519,510.5C 2472.18,559.251 2416.01,574.751 2350.5,557C 2316.3,543.46 2301.47,518.294 2306,481.5C 2309.73,461.429 2320.23,445.929 2337.5,435C 2357.57,422.134 2379.24,412.801 2402.5,407C 2443.02,397.131 2483.68,388.631 2524.5,381.5 Z"/></g>
<g><path style="opacity:0.995" fill="#fefffe" d="M 4999.5,43.5 C 4999.5,245.833 4999.5,448.167 4999.5,650.5C 4995.44,663.057 4987.11,671.557 4974.5,676C 4959.21,677.126 4943.88,677.626 4928.5,677.5C 4913.12,677.626 4897.79,677.126 4882.5,676C 4868.48,671.98 4859.98,662.813 4857,648.5C 4856.67,635.833 4856.33,623.167 4856,610.5C 4820.83,650.849 4776.99,677.016 4724.5,689C 4707.5,692.5 4690.5,695 4673.5,696.5C 4657.5,696.5 4641.5,696.5 4625.5,696.5C 4519.89,688.743 4450.73,634.41 4418,533.5C 4406.25,493.684 4399.92,453.018 4399,411.5C 4398.67,331.833 4398.33,252.167 4398,172.5C 4384.99,168.642 4371.66,166.642 4358,166.5C 4306.09,165.788 4262.42,184.121 4227,221.5C 4202.03,253.728 4189.37,290.395 4189,331.5C 4188.67,437.833 4188.33,544.167 4188,650.5C 4183.53,665.302 4173.7,674.135 4158.5,677C 4124.5,677.667 4090.5,677.667 4056.5,677C 4040.32,674.485 4030.15,665.318 4026,649.5C 4025.33,448.167 4025.33,246.833 4026,45.5C 4029.17,30.3333 4038.33,21.1667 4053.5,18C 4082.5,17.3333 4111.5,17.3333 4140.5,18C 4155.67,21.1667 4164.83,30.3333 4168,45.5C 4168.33,70.8333 4168.67,96.1667 4169,121.5C 4197.19,71.1246 4239.35,38.6246 4295.5,24C 4329.74,15.6138 4364.41,13.2804 4399.5,17C 4444.83,17.3333 4490.17,17.6667 4535.5,18C 4552.26,22.4234 4561.42,33.2567 4563,50.5C 4563.33,154.833 4563.67,259.167 4564,363.5C 4564.05,405.412 4573.38,445.079 4592,482.5C 4616.24,522.459 4651.91,541.459 4699,539.5C 4767.67,538.161 4810.34,504.161 4827,437.5C 4829.9,423.777 4832.9,410.111 4836,396.5C 4836.33,279.5 4836.67,162.5 4837,45.5C 4840.17,30.3333 4849.33,21.1667 4864.5,18C 4900.5,17.3333 4936.5,17.3333 4972.5,18C 4986.28,21.6125 4995.28,30.1125 4999.5,43.5 Z"/></g>
<g><path style="opacity:0.993" fill="#fefffe" d="M 3624.5,696.5 C 3608.5,696.5 3592.5,696.5 3576.5,696.5C 3477.44,689.59 3409.94,639.924 3374,547.5C 3358.66,502.111 3350.66,455.444 3350,407.5C 3349.67,291.833 3349.33,176.167 3349,60.5C 3284.51,151.483 3220.51,242.817 3157,334.5C 3152.96,345.659 3153.96,356.326 3160,366.5C 3217,451.833 3274,537.167 3331,622.5C 3340.6,640.916 3337.77,657.083 3322.5,671C 3317.32,674.394 3311.65,676.394 3305.5,677C 3260.83,677.667 3216.17,677.667 3171.5,677C 3159.37,675.194 3150.2,669.027 3144,658.5C 3103.58,592 3062.92,525.666 3022,459.5C 3008.29,444.828 2992.79,442.661 2975.5,453C 2967.61,458.886 2963.11,466.72 2962,476.5C 2961.67,534.167 2961.33,591.833 2961,649.5C 2956.85,665.318 2946.68,674.485 2930.5,677C 2895.83,677.667 2861.17,677.667 2826.5,677C 2811.7,674.199 2801.87,665.699 2797,651.5C 2795.95,642.705 2795.45,633.872 2795.5,625C 2796.31,433.503 2796.81,242.003 2797,50.5C 2798.03,33.1418 2806.86,21.9751 2823.5,17C 2860.5,16.3333 2897.5,16.3333 2934.5,17C 2948.67,20.5 2957.5,29.3333 2961,43.5C 2961.33,105.167 2961.67,166.833 2962,228.5C 2965.77,246.771 2976.94,256.771 2995.5,258.5C 3006.9,258.217 3016.07,253.55 3023,244.5C 3072.72,170.783 3123.22,97.6162 3174.5,25C 3178.93,21.5194 3183.93,19.186 3189.5,18C 3288.5,17.3333 3387.5,17.3333 3486.5,18C 3502.32,22.1523 3511.48,32.319 3514,48.5C 3514.33,152.167 3514.67,255.833 3515,359.5C 3514.88,396.458 3521.55,432.124 3535,466.5C 3562.65,524.412 3608.48,548.246 3672.5,538C 3725.99,529.848 3760.16,499.682 3775,447.5C 3781.22,418.502 3784.89,389.168 3786,359.5C 3787.28,255.176 3787.95,150.843 3788,46.5C 3791.42,31.4094 3800.59,21.9094 3815.5,18C 3851.5,17.3333 3887.5,17.3333 3923.5,18C 3939.8,22.3 3948.97,32.8 3951,49.5C 3951.67,248.167 3951.67,446.833 3951,645.5C 3948.6,663.567 3938.43,674.067 3920.5,677C 3891.46,677.959 3862.46,677.626 3833.5,676C 3818.61,671.728 3810.11,661.894 3808,646.5C 3807.67,634.5 3807.33,622.5 3807,610.5C 3771.83,650.849 3727.99,677.016 3675.5,689C 3658.5,692.5 3641.5,695 3624.5,696.5 Z"/></g>
</svg>
